<svg id="Layer_1" data-name="Layer 1" xmlns="http://www.w3.org/2000/svg" viewBox="0 0 2595.99 660.41"><defs><style>.cls-1{fill:none;stroke:#000;stroke-linecap:round;stroke-linejoin:round;stroke-width:3.4px;}</style></defs><title>SVG</title><line class="cls-1" x1="1426.98" y1="658.3" x2="4.56" y2="658.3"/><line class="cls-1" x1="2549.43" y1="658.3" x2="1499.41" y2="658.3"/><path class="cls-1" d="M520.38,536.12c-28.75,0-54.44-52.62-54.44-52.62-20.45-36.16,8.18-109.05,37.84-127.42s68.52,2.29,90,29.27S612.3,468,593.76,495c0,0-15.6,36.39-47.19,36.39"/><path class="cls-1" d="M548.93,659.18s-5.6-160.15-4-165.21,21.58-28.21,21.58-28.21-25.58,21-28,12.3-7.19-74.5-7.19-74.5-1.6,66.54-8,65.82-32.78-26.76-32.78-26.76,30.38,34.71,30.38,47.73-2.4,168.83-2.4,168.83"/><path class="cls-1" d="M785.72,472.28s32.13,23.08,53.48-8c0,0,35.58,8.88,43.59-24,0,0,42.7-3.55,40.92-36.39,0,0,51.58-24.84,17.78-71.88,0,0,32.92-29.28-4.44-62.11,0,0,28.46-42.59-21.35-55,0,0-4.45-50.59-54.26-39.05,0,0-13.34-42.6-61.37-26.62,0,0-43.15-32-67.6,10.65,0,0-47.15-6.21-56,32.83,0,0-45.36,6.22-40.91,51.47,0,0-34.83,31.95-12.59,70.1,0,0-22.18,63.55,25.93,69.22,0,0-1.54,28.14,26.93,40.57,0,0,5.09,34,35.33,28.65,0,0,23.13,25.74,40,11.54"/><path class="cls-1" d="M737.8,655.19s23.13-233.83,15.12-250.78-33.8-26.53-33.8-26.53,29.36-.73,39.14,8.11,22.24,11.05,35.58,8.84,26.68-5.9,45.36-4.43c0,0-49.81,5.16-53.36,31s5.33,233.82,5.33,233.82"/><path class="cls-1" d="M934.06,657s9.65-24.58,2.3-32.83-21.84-7.33-26.66,1.37c0,0-1.38-8.93-11.72-10.42s-13.33,8.13-13.56,12c0,0-8.28-6.87-17.7-5.73s-11.73,9.39-9.89,12.37c0,0-24.68.3-15.63,23.21"/><path class="cls-1" d="M686.28,658.3s14.85-9,5.86-26-26.47-3.5-26.47-3.5-6.8-36.46-45.6-29.47-24.82,58.93-24.82,58.93"/><path class="cls-1" d="M2202,658.3s10.46-6.33,4.13-18.29-18.65-2.46-18.65-2.46-4.79-25.68-32.12-20.76-17.48,41.51-17.48,41.51"/><path class="cls-1" d="M135.57,473.12c43.6,0,82.55-79.79,82.55-79.79,31-54.83-12.4-165.37-57.37-193.22S56.86,203.58,24.3,244.49s-28.12,125.33,0,166.24c0,0,23.65,55.18,71.56,55.18"/><path class="cls-1" d="M92.28,659.72s8.49-242.85,6.06-250.52-32.73-42.78-32.73-42.78S104.4,398.23,108,385.07,119,272.1,119,272.1s2.43,100.9,12.12,99.8,49.7-40.58,49.7-40.58S134.71,384,134.71,403.71s3.64,256,3.64,256"/><path class="cls-1" d="M208.37,659.54s-13.66-3.73-8.28-16.56,17-4.14,17-4.14-11.59-9.52-2.48-17.81S226.18,631,226.18,631,221.63,609,241.5,605.3s25.67,24.84,25.67,24.84,2.07-21.53,11.18-22.36,0,19.46,0,19.46,11.13-17.39,27.51-5-3.5,37.27-3.5,37.27"/><path class="cls-1" d="M345,656s-13.24-33.73-3.15-45,30-10.05,36.58,1.89c0,0,1.89-12.25,16.08-14.3s18.29,11.16,18.6,16.5c0,0,11.35-9.43,24.28-7.85s16.09,12.88,13.56,17c0,0,33.86.41,21.44,31.84"/><path class="cls-1" d="M2041.34,657s-9.65-24.58-2.3-32.83,21.84-7.33,26.66,1.37c0,0,1.38-8.93,11.72-10.42s13.33,8.13,13.56,12c0,0,8.28-6.87,17.7-5.73s11.73,9.39,9.89,12.37c0,0,24.68.3,15.63,23.21"/><path class="cls-1" d="M947.87,658.3s-14.85-9-5.86-26,26.47-3.5,26.47-3.5,6.8-36.46,45.6-29.47,24.82,58.93,24.82,58.93"/><path class="cls-1" d="M228.38,339.18c62.6-22,168-108.11,168-108.11s0-31.45,62.67-41.75,46-126.11,107.49-164.11,68.13-19,68.13-19C774,97.68,949.41,97.68,973.43,116.31S1026.3,140,1026.3,140s16.82-8.47,40.85-23.7,57.67-6.77,57.67-6.77,26.43,22,69.68,20.32S1324.24,52,1357.88,36.73s48.06,15.24,81.69,22,21.62-3.39,43.25-6.77,67.89,3.39,99.13,11.85c0,0,94.61-72.61,248.61-4.61s118,34,234,16,141.44,79.84,274.72,93.92c0,0,79.79,22.54,100.94,105.95,13.34,52.63,47.57,79.68,47.57,79.68"/><rect class="cls-1" x="1071.89" y="642.81" width="46.96" height="16.27"/><polyline class="cls-1" points="1090.08 334.44 1090.08 642.81 1100.65 642.81 1100.65 334.44"/><circle class="cls-1" cx="1095.37" cy="305.55" r="28.88"/><path class="cls-1" d="M1095.37,269.95a35.6,35.6,0,0,0-35.6,35.6H1131A35.6,35.6,0,0,0,1095.37,269.95Z"/><polygon class="cls-1" points="2419.74 156.64 2487.79 156.64 2487.79 194.7 2419.74 194.7 2392.64 175.67 2419.74 156.64"/><polygon class="cls-1" points="2565.96 169.13 2497.92 169.13 2497.92 131.07 2565.96 131.07 2593.07 150.1 2565.96 169.13"/><polygon class="cls-1" points="2565.96 224.44 2497.92 224.44 2497.92 186.38 2565.96 186.38 2593.07 205.41 2565.96 224.44"/><rect class="cls-1" x="2470.35" y="642.7" width="45.01" height="15.6"/><path class="cls-1" d="M2492.85,116a5.06,5.06,0,0,0-5.06,5.06V642.7h10.13V121.07A5.06,5.06,0,0,0,2492.85,116Z"/></svg>