<svg xmlns="http://www.w3.org/2000/svg" id="Layer_1" data-name="Layer 1" viewBox="0 0 2629.66 760.58"><defs><style>.cls-1{fill:none;stroke:#000;stroke-linecap:round;stroke-linejoin:round;stroke-width:3.4px;}
    .line1e {transform: scale(0.996);}
    .line2e {transform: scale(0.998);}</style></defs><title>SVG</title><rect class="cls-1" x="3.65" y="638.25" width="215.65" height="119.24"/><line class="cls-1" x1="31.99" y1="666.51" x2="31.99" y2="732.51"/><line class="cls-1" x1="71.99" y1="666.51" x2="71.99" y2="732.51"/><line class="cls-1" x1="111.99" y1="666.51" x2="111.99" y2="732.51"/><line class="cls-1" x1="151.99" y1="666.51" x2="151.99" y2="732.51"/><line class="cls-1" x1="191.99" y1="666.51" x2="191.99" y2="732.51"/><path class="cls-1" d="M1214.55,651.51s-87.84-56-197.47,0"/><path class="cls-1" d="M1214.55,691.51s-87.84-56-197.47,0"/><path class="cls-1" d="M1214.55,732.51s-87.84-56-197.47,0"/><path class="cls-1" d="M1214.55,609.39s-87.84-56-197.47,0"/><path class="cls-1" d="M1214.55,569.39s-87.84-56-197.47,0"/><path class="cls-1" d="M1214.55,529.39s-87.84-56-197.47,0"/><path class="cls-1" d="M1214.55,489.39s-87.84-56-197.47,0"/><path class="cls-1" d="M1214.55,449.39s-87.84-56-197.47,0"/><path class="cls-1" d="M1214.55,409.39s-87.84-56-197.47,0"/><path class="cls-1" d="M1214.55,369.39s-87.84-56-197.47,0"/><path class="cls-1" d="M1214.55,329.39s-87.84-56-197.47,0"/><path class="cls-1" d="M1214.55,289.39s-87.84-56-197.47,0"/><polygon class="cls-1" points="1501.89 161.78 1590.44 108.08 1673.24 161.78 1673.24 486.69 1501.89 486.69 1501.89 161.78"/><line class="cls-1" x1="1656.1" y1="217.86" x2="1519.03" y2="217.86"/><line class="cls-1" x1="1656.1" y1="255.25" x2="1519.03" y2="255.25"/><line class="cls-1" x1="1656.1" y1="292.64" x2="1519.03" y2="292.64"/><line class="cls-1" x1="1656.1" y1="330.02" x2="1519.03" y2="330.02"/><line class="cls-1" x1="1656.1" y1="367.41" x2="1519.03" y2="367.41"/><line class="cls-1" x1="1656.1" y1="404.8" x2="1519.03" y2="404.8"/><line class="cls-1" x1="1656.1" y1="442.19" x2="1519.03" y2="442.19"/><rect class="cls-1" x="830.66" y="183.05" width="101.33" height="15.11"/><polygon class="cls-1" points="871.24 183.05 852.74 90.67 852.74 183.05 871.24 183.05"/><polygon class="cls-1" points="909.91 90.67 909.91 183.05 892.19 183.05 909.91 90.67"/><polyline class="cls-1" points="1442.78 486.69 1442.78 102.02 1315.72 102.02 1315.72 305.53"/><rect class="cls-1" x="1328.46" y="88.74" width="101.33" height="13.28"/><polygon class="cls-1" points="1350.54 0.02 1350.54 88.74 1368.72 88.74 1350.54 0.02"/><polygon class="cls-1" points="1407.71 0.02 1407.71 88.74 1389.53 88.74 1407.71 0.02"/><polygon class="cls-1" points="1338.4 390.4 1338.4 305.53 1246.6 305.53 1246.6 390.4 1214.55 390.4 1214.55 757.63 1374.79 756.78 1374.79 389.55 1338.4 390.4"/><line class="cls-1" x1="1237.54" y1="743.78" x2="1237.54" y2="414.66"/><line class="cls-1" x1="1266.06" y1="743.78" x2="1266.06" y2="414.66"/><line class="cls-1" x1="1294.58" y1="743.78" x2="1294.58" y2="414.66"/><line class="cls-1" x1="1323.1" y1="743.78" x2="1323.1" y2="414.66"/><line class="cls-1" x1="1351.62" y1="743.78" x2="1351.62" y2="414.66"/><polygon class="cls-1" points="1297.7 305.53 1287.3 305.53 1294.23 206.79 1297.7 305.53"/><polyline class="cls-1" points="1214.55 288.19 1214.55 757.63 1017.08 757.63 1017.08 289.39"/><rect class="cls-1" x="900.16" y="451.05" width="116.92" height="306.59"/><polyline class="cls-1" points="817.67 362.71 817.67 692.67 707.35 692.67 707.35 362.71 739.96 362.71"/><line class="cls-1" x1="800.89" y1="416.41" x2="763.21" y2="416.41"/><polyline class="cls-1" points="800.88 455.38 763.21 455.38 763.21 432"/><polyline class="cls-1" points="800.88 494.35 763.21 494.35 763.21 470.97"/><polyline class="cls-1" points="800.88 533.33 763.21 533.33 763.21 509.94"/><polyline class="cls-1" points="800.88 572.3 763.21 572.3 763.21 548.91"/><polyline class="cls-1" points="800.88 611.27 763.21 611.27 763.21 587.89"/><polyline class="cls-1" points="800.88 650.25 763.21 650.25 763.21 626.86"/><polyline class="cls-1" points="739.96 393.02 739.96 416.41 723.17 416.41"/><polyline class="cls-1" points="739.96 432 739.96 455.38 723.17 455.38"/><polyline class="cls-1" points="739.96 470.97 739.96 494.35 723.17 494.35"/><polyline class="cls-1" points="739.96 509.94 739.96 533.33 723.17 533.33"/><polyline class="cls-1" points="739.96 548.91 739.96 572.3 723.17 572.3"/><polyline class="cls-1" points="739.96 587.89 739.96 611.27 723.17 611.27"/><polyline class="cls-1" points="739.96 626.86 739.96 650.25 723.17 650.25"/><rect class="cls-1" x="739.96" y="326.33" width="23.38" height="366.35"/><rect class="cls-1" x="613.61" y="692.68" width="204.06" height="64.95"/><line class="cls-1" x1="807.2" y1="737.3" x2="624.08" y2="737.3"/><line class="cls-1" x1="807.2" y1="713.92" x2="624.08" y2="713.92"/><polyline class="cls-1" points="1676.9 757.49 1374.79 757.49 1374.79 486.69 1753.86 486.69 1753.86 638.25"/><line class="cls-1" x1="1725.27" y1="533.89" x2="1403.08" y2="533.89"/><line class="cls-1" x1="1725.27" y1="577.19" x2="1403.08" y2="577.19"/><line class="cls-1" x1="1725.27" y1="620.5" x2="1403.08" y2="620.5"/><polyline class="cls-1" points="1676.85 651.82 1676.85 663.8 1403.08 663.8"/><polyline class="cls-1" points="1676.85 695.13 1676.85 707.11 1403.08 707.11"/><rect class="cls-1" x="1676.84" y="638.25" width="215.65" height="119.24"/><line class="cls-1" x1="817.67" y1="757.63" x2="900.16" y2="757.63"/><line class="cls-1" x1="817.67" y1="320.98" x2="945.33" y2="392.27"/><line class="cls-1" x1="945.33" y1="320.98" x2="817.67" y2="392.27"/><line class="cls-1" x1="817.67" y1="428.69" x2="900.16" y2="474.76"/><line class="cls-1" x1="945.33" y1="428.69" x2="817.67" y2="499.98"/><line class="cls-1" x1="1315.42" y1="121.35" x2="1443.08" y2="192.64"/><line class="cls-1" x1="1443.08" y1="121.35" x2="1315.42" y2="192.64"/><line class="cls-1" x1="1315.42" y1="228.41" x2="1443.08" y2="299.7"/><line class="cls-1" x1="1443.08" y1="228.41" x2="1315.42" y2="299.7"/><line class="cls-1" x1="1339.4" y1="349.52" x2="1442.78" y2="407.25"/><line class="cls-1" x1="1443.08" y1="336.13" x2="1346.22" y2="390.22"/><line class="cls-1" x1="1443.08" y1="435.95" x2="1374.44" y2="474.28"/><line class="cls-1" x1="817.67" y1="536.65" x2="900.16" y2="582.72"/><line class="cls-1" x1="900.16" y1="561.88" x2="817.67" y2="607.94"/><line class="cls-1" x1="817.67" y1="643.48" x2="900.16" y2="689.55"/><line class="cls-1" x1="900.16" y1="668.71" x2="817.67" y2="714.77"/><polyline class="cls-1" points="763.35 362.71 817.67 362.71 817.67 198.16 945.33 198.16 945.33 451.05"/><line class="cls-1" x1="1705.19" y1="666.51" x2="1705.19" y2="732.51"/><line class="cls-1" x1="1745.19" y1="666.51" x2="1745.19" y2="732.51"/><line class="cls-1" x1="1785.19" y1="666.51" x2="1785.19" y2="732.51"/><line class="cls-1" x1="1825.19" y1="666.51" x2="1825.19" y2="732.51"/><line class="cls-1" x1="1865.19" y1="666.51" x2="1865.19" y2="732.51"/><path class="cls-1" d="M2062.37,756.28s-9.65-24.58-2.3-32.83,21.84-7.33,26.66,1.37c0,0,1.38-8.93,11.72-10.42s13.33,8.13,13.56,12c0,0,8.28-6.87,17.7-5.73s11.73,9.39,9.89,12.37c0,0,24.68.3,15.63,23.21"/><path class="cls-1" d="M555.93,583c40.77,1.23,70-44.1,59.14-82.9-9.12-32.47-39.24-47.6-66.59-47.69-11-28.24-47.49-43.61-77.08-32.25-34.32,13.18-43.63,51.51-34.91,78.46v0c-10.3,4.52-19.47,12.45-26.26,24.28-15.44,26.91,4.47,62.8,34.42,69.4A47.43,47.43,0,0,0,485.81,580"/><path class="cls-1" d="M493.45,755.07s4.93-173,3.52-178.94-19-33.24-19-33.24,22.55,24.71,24.66,14.49,6.34-87.78,6.34-87.78,1.41,78.4,7,77.55,28.89-31.53,28.89-31.53-26.78,40.91-26.78,56.24,2.12,183.2,2.12,183.2"/><path class="cls-1" d="M323.29,755s-13.66-3.73-8.28-16.56,17-4.14,17-4.14-11.59-9.52-2.48-17.81,11.59,9.94,11.59,9.94-4.55-21.95,15.32-25.67,25.67,24.84,25.67,24.84,2.07-21.53,11.18-22.36,0,19.46,0,19.46,11.13-17.39,27.51-5-3.5,37.27-3.5,37.27"/><line class="cls-1" x1="2629.66" y1="758.47" x2="3.65" y2="758.47"/><path class="cls-1 line1e" d="M0,239.17c33.86,1.2,142.82-24.74,175.09-24.7s66.18-24.34,95.23-37.1S405.15,17.76,439.17,19.31c16.45,0.75,47.12,54.89,79,79,34.05,25.75,22.21-34.55,106.13,56.77,25.52,27.76,87.35,64.61,105.75,33.2,11.49-19.6,57.72-35.34,125.82-9.18,0,0,186.55-116.72,408.54-93.58,0,0,36.27,3.47,56.26,19.24"/><path class="cls-1" d="M1889.05,652.84c125,12,281.49-93.15,281.49-93.15s77.19-51.33,168.15-59.26c64.44-5.61,291-45.05,291-45.05"/><path class="cls-1 line2e" d="M1444.77,172.68s38.22,17.93,59.11,76.58"/><line class="cls-1" x1="817.67" y1="219.61" x2="945.33" y2="290.9"/><line class="cls-1" x1="945.33" y1="219.61" x2="817.67" y2="290.9"/></svg>