<?xml version="1.0" encoding="UTF-8" standalone="no"?>
<!-- Generator: Adobe Illustrator 19.2.1, SVG Export Plug-In . SVG Version: 6.00 Build 0)  -->

<svg
   xmlns:dc="http://purl.org/dc/elements/1.1/"
   xmlns:cc="http://creativecommons.org/ns#"
   xmlns:rdf="http://www.w3.org/1999/02/22-rdf-syntax-ns#"
   xmlns:svg="http://www.w3.org/2000/svg"
   xmlns="http://www.w3.org/2000/svg"
   xmlns:sodipodi="http://sodipodi.sourceforge.net/DTD/sodipodi-0.dtd"
   xmlns:inkscape="http://www.inkscape.org/namespaces/inkscape"
   version="1.1"
   id="Layer_1"
   x="0px"
   y="0px"
   viewBox="0 0 2505.6 760.6"
   style="enable-background:new 0 0 2505.6 760.6;"
   xml:space="preserve"
   sodipodi:docname="back-svg1.svg"
   inkscape:version="0.92.1 r15371"><metadata
     id="metadata5421"><rdf:RDF><cc:Work
         rdf:about=""><dc:format>image/svg+xml</dc:format><dc:type
           rdf:resource="http://purl.org/dc/dcmitype/StillImage" /></cc:Work></rdf:RDF></metadata><defs
     id="defs5419" /><sodipodi:namedview
     pagecolor="#ffffff"
     bordercolor="#666666"
     borderopacity="1"
     objecttolerance="10"
     gridtolerance="10"
     guidetolerance="10"
     inkscape:pageopacity="0"
     inkscape:pageshadow="2"
     inkscape:window-width="1366"
     inkscape:window-height="705"
     id="namedview5417"
     showgrid="false"
     inkscape:zoom="1.2823647"
     inkscape:cx="883.04411"
     inkscape:cy="300.41837"
     inkscape:window-x="-8"
     inkscape:window-y="-8"
     inkscape:window-maximized="1"
     inkscape:current-layer="Layer_1" /><style
     type="text/css"
     id="style5170">
	.st0{fill:none;stroke:#000000;stroke-width:3.4;stroke-linecap:round;stroke-linejoin:round;}
</style><title
     id="title5172">SVG</title><polygon
     class="st0"
     points="2251.5,161.8 2340.1,108.1 2422.9,161.8 2422.9,486.7 2251.5,486.7 "
     id="polygon5174" /><line
     class="st0"
     x1="2405.7"
     y1="217.9"
     x2="2268.7"
     y2="217.9"
     id="line5176" /><line
     class="st0"
     x1="2405.7"
     y1="255.3"
     x2="2268.7"
     y2="255.3"
     id="line5178" /><line
     class="st0"
     x1="2405.7"
     y1="292.6"
     x2="2268.7"
     y2="292.6"
     id="line5180" /><line
     class="st0"
     x1="2405.7"
     y1="330"
     x2="2268.7"
     y2="330"
     id="line5182" /><line
     class="st0"
     x1="2405.7"
     y1="367.4"
     x2="2268.7"
     y2="367.4"
     id="line5184" /><line
     class="st0"
     x1="2405.7"
     y1="404.8"
     x2="2268.7"
     y2="404.8"
     id="line5186" /><line
     class="st0"
     x1="2405.7"
     y1="442.2"
     x2="2268.7"
     y2="442.2"
     id="line5188" /><rect
     x="1580.3"
     y="183.1"
     class="st0"
     width="101.3"
     height="15.1"
     id="rect5190" /><polygon
     class="st0"
     points="1620.9,183.1 1602.4,90.7 1602.4,183.1 "
     id="polygon5192" /><polygon
     class="st0"
     points="1659.6,90.7 1659.6,183.1 1641.8,183.1 "
     id="polygon5194" /><polyline
     class="st0"
     points="2192.4,486.7 2192.4,102 2065.4,102 2065.4,305.5 "
     id="polyline5196" /><rect
     x="2078.1"
     y="88.7"
     class="st0"
     width="101.3"
     height="13.3"
     id="rect5198" /><polygon
     class="st0"
     points="2100.2,0 2100.2,88.7 2118.4,88.7 "
     id="polygon5200" /><polygon
     class="st0"
     points="2157.4,0 2157.4,88.7 2139.2,88.7 "
     id="polygon5202" /><polygon
     class="st0"
     points="2088,390.4 2088,305.5 1996.2,305.5 1996.2,390.4 1964.2,390.4 1964.2,757.6 2124.4,756.8   2124.4,389.5 "
     id="polygon5204" /><line
     class="st0"
     x1="1987.2"
     y1="743.8"
     x2="1987.2"
     y2="414.7"
     id="line5206" /><line
     class="st0"
     x1="2015.7"
     y1="743.8"
     x2="2015.7"
     y2="414.7"
     id="line5208" /><line
     class="st0"
     x1="2044.2"
     y1="743.8"
     x2="2044.2"
     y2="414.7"
     id="line5210" /><line
     class="st0"
     x1="2072.7"
     y1="743.8"
     x2="2072.7"
     y2="414.7"
     id="line5212" /><line
     class="st0"
     x1="2101.3"
     y1="743.8"
     x2="2101.3"
     y2="414.7"
     id="line5214" /><polygon
     class="st0"
     points="2047.3,305.5 2036.9,305.5 2043.9,206.8 "
     id="polygon5216" /><polyline
     class="st0"
     points="1964.2,288.2 1964.2,757.6 1766.7,757.6 1766.7,289.4 "
     id="polyline5218" /><rect
     x="1649.8"
     y="451"
     class="st0"
     width="116.9"
     height="306.6"
     id="rect5220" /><polyline
     class="st0"
     points="1567.3,362.7 1567.3,692.7 1457,692.7 1457,362.7 1489.6,362.7 "
     id="polyline5222" /><line
     class="st0"
     x1="1550.5"
     y1="416.4"
     x2="1512.8"
     y2="416.4"
     id="line5224" /><polyline
     class="st0"
     points="1550.5,455.4 1512.8,455.4 1512.8,432 "
     id="polyline5226" /><polyline
     class="st0"
     points="1550.5,494.4 1512.8,494.4 1512.8,471 "
     id="polyline5228" /><polyline
     class="st0"
     points="1550.5,533.3 1512.8,533.3 1512.8,509.9 "
     id="polyline5230" /><polyline
     class="st0"
     points="1550.5,572.3 1512.8,572.3 1512.8,548.9 "
     id="polyline5232" /><polyline
     class="st0"
     points="1550.5,611.3 1512.8,611.3 1512.8,587.9 "
     id="polyline5234" /><polyline
     class="st0"
     points="1550.5,650.3 1512.8,650.3 1512.8,626.9 "
     id="polyline5236" /><polyline
     class="st0"
     points="1489.6,393 1489.6,416.4 1472.8,416.4 "
     id="polyline5238" /><polyline
     class="st0"
     points="1489.6,432 1489.6,455.4 1472.8,455.4 "
     id="polyline5240" /><polyline
     class="st0"
     points="1489.6,471 1489.6,494.4 1472.8,494.4 "
     id="polyline5242" /><polyline
     class="st0"
     points="1489.6,509.9 1489.6,533.3 1472.8,533.3 "
     id="polyline5244" /><polyline
     class="st0"
     points="1489.6,548.9 1489.6,572.3 1472.8,572.3 "
     id="polyline5246" /><polyline
     class="st0"
     points="1489.6,587.9 1489.6,611.3 1472.8,611.3 "
     id="polyline5248" /><polyline
     class="st0"
     points="1489.6,626.9 1489.6,650.3 1472.8,650.3 "
     id="polyline5250" /><rect
     x="1489.6"
     y="326.3"
     class="st0"
     width="23.4"
     height="366.4"
     id="rect5252" /><rect
     x="1363.3"
     y="692.7"
     class="st0"
     width="204.1"
     height="65"
     id="rect5254" /><line
     class="st0"
     x1="1556.8"
     y1="737.3"
     x2="1373.7"
     y2="737.3"
     id="line5256" /><line
     class="st0"
     x1="1556.8"
     y1="713.9"
     x2="1373.7"
     y2="713.9"
     id="line5258" /><polyline
     class="st0"
     points="2503.5,638.3 2503.5,486.7 2422.9,486.7 "
     id="polyline5260" /><polyline
     class="st0"
     points="2426.5,757.5 2124.4,757.5 2124.4,486.7 2251.5,486.7 "
     id="polyline5262" /><line
     class="st0"
     x1="2422.9"
     y1="533.9"
     x2="2152.7"
     y2="533.9"
     id="line5264" /><line
     class="st0"
     x1="2422.9"
     y1="577.2"
     x2="2152.7"
     y2="577.2"
     id="line5266" /><line
     class="st0"
     x1="2422.9"
     y1="620.5"
     x2="2152.7"
     y2="620.5"
     id="line5268" /><line
     class="st0"
     x1="2426.5"
     y1="663.8"
     x2="2152.7"
     y2="663.8"
     id="line5270" /><line
     class="st0"
     x1="2426.5"
     y1="707.1"
     x2="2152.7"
     y2="707.1"
     id="line5272" /><line
     class="st0"
     x1="1567.3"
     y1="757.6"
     x2="1649.8"
     y2="757.6"
     id="line5274" /><line
     class="st0"
     x1="1567.3"
     y1="213.9"
     x2="1602.4"
     y2="233.5"
     id="line5276" /><line
     class="st0"
     x1="1602.3"
     y1="266.6"
     x2="1567.3"
     y2="285.2"
     id="line5278" /><line
     class="st0"
     x1="1567.3"
     y1="321"
     x2="1695"
     y2="392.3"
     id="line5280" /><line
     class="st0"
     x1="1695"
     y1="321"
     x2="1567.3"
     y2="392.3"
     id="line5282" /><line
     class="st0"
     x1="1567.3"
     y1="428.7"
     x2="1649.8"
     y2="474.8"
     id="line5284" /><line
     class="st0"
     x1="1695"
     y1="428.7"
     x2="1567.3"
     y2="500"
     id="line5286" /><line
     class="st0"
     x1="2065.1"
     y1="121.3"
     x2="2192.7"
     y2="192.6"
     id="line5288" /><line
     class="st0"
     x1="2192.7"
     y1="121.3"
     x2="2065.1"
     y2="192.6"
     id="line5290" /><line
     class="st0"
     x1="2065.1"
     y1="228.4"
     x2="2192.7"
     y2="299.7"
     id="line5292" /><line
     class="st0"
     x1="2192.7"
     y1="228.4"
     x2="2065.1"
     y2="299.7"
     id="line5294" /><line
     class="st0"
     x1="2089"
     y1="349.5"
     x2="2192.4"
     y2="407.3"
     id="line5296" /><line
     class="st0"
     x1="2192.7"
     y1="336.1"
     x2="2095.9"
     y2="390.2"
     id="line5298" /><line
     class="st0"
     x1="2192.7"
     y1="436"
     x2="2124.1"
     y2="474.3"
     id="line5300" /><line
     class="st0"
     x1="1567.3"
     y1="536.7"
     x2="1649.8"
     y2="582.7"
     id="line5302" /><line
     class="st0"
     x1="1649.8"
     y1="561.9"
     x2="1567.3"
     y2="607.9"
     id="line5304" /><line
     class="st0"
     x1="1567.3"
     y1="643.5"
     x2="1649.8"
     y2="689.5"
     id="line5306" /><line
     class="st0"
     x1="1649.8"
     y1="668.7"
     x2="1567.3"
     y2="714.8"
     id="line5308" /><polyline
     class="st0"
     points="1513,362.7 1567.3,362.7 1567.3,198.2 1695,198.2 1695,451 "
     id="polyline5310" /><line
     class="st0"
     x1="1694.5"
     y1="214"
     x2="1659.6"
     y2="232.6"
     id="line5312" /><line
     class="st0"
     x1="1659"
     y1="265.5"
     x2="1694.1"
     y2="285"
     id="line5314" /><path
     class="st0"
     d="M1964.2,651.5c0,0-87.8-56-197.5,0"
     id="path5316" /><path
     class="st0"
     d="M1964.2,691.5c0,0-87.8-56-197.5,0"
     id="path5318" /><path
     class="st0"
     d="M1964.2,732.5c0,0-87.8-56-197.5,0"
     id="path5320" /><path
     class="st0"
     d="M1964.2,609.4c0,0-87.8-56-197.5,0"
     id="path5322" /><path
     class="st0"
     d="M1964.2,569.4c0,0-87.8-56-197.5,0"
     id="path5324" /><path
     class="st0"
     d="M1964.2,529.4c0,0-87.8-56-197.5,0"
     id="path5326" /><path
     class="st0"
     d="M1964.2,489.4c0,0-87.8-56-197.5,0"
     id="path5328" /><path
     class="st0"
     d="M1964.2,449.4c0,0-87.8-56-197.5,0"
     id="path5330" /><path
     class="st0"
     d="M1964.2,409.4c0,0-87.8-56-197.5,0"
     id="path5332" /><path
     class="st0"
     d="M1964.2,369.4c0,0-87.8-56-197.5,0"
     id="path5334" /><path
     class="st0"
     d="M1964.2,329.4c0,0-87.8-56-197.5,0"
     id="path5336" /><path
     class="st0"
     d="M1964.2,289.4c0,0-87.8-56-197.5,0"
     id="path5338" /><line
     class="st0"
     x1="201.7"
     y1="757.6"
     x2="1331.1"
     y2="757.6"
     id="line5340" /><line
     class="st0"
     x1="8.4"
     y1="757.6"
     x2="183.8"
     y2="757.6"
     id="line5342" /><line
     class="st0"
     x1="1975.1"
     y1="757.6"
     x2="2426.5"
     y2="757.6"
     id="line5344" /><path
     class="st0"
     d="M938.8,662.4c22.5,0,42.5-41.1,42.5-41.1c16-28.2-6.4-85.1-29.5-99.5s-53.5,1.8-70.3,22.8s-14.5,64.5,0,85.6  c0,0,12.2,28.4,36.8,28.4"
     id="path5346" /><path
     class="st0"
     d="M916.5,758.5c0,0,4.4-125,3.1-129s-16.8-22-16.8-22s20,16.4,21.8,9.6s5.6-58.2,5.6-58.2s1.3,51.9,6.2,51.4  s25.6-20.9,25.6-20.9s-23.7,27.1-23.7,37.3s1.9,131.8,1.9,131.8"
     id="path5348" /><path
     class="st0"
     d="M731.7,612.6c0,0-25.1,18-41.8-6.2c0,0-27.8,6.9-34-18.7c0,0-33.3-2.8-32-28.4c0,0-40.3-19.4-13.9-56.1  c0,0-25.7-22.9,3.5-48.5c0,0-22.2-33.3,16.7-43c0,0,3.5-39.5,42.4-30.5c0,0,10.4-33.3,47.9-20.8c0,0,33.7-25,52.8,8.3  c0,0,36.8-4.9,43.8,25.6c0,0,35.4,4.9,31.9,40.2c0,0,27.2,24.9,9.8,54.7c0,0,17.3,49.6-20.2,54c0.1,13.8-8.2,26.4-21,31.7  c0,0-4,26.5-27.6,22.4c0,0-18.1,20.1-31.3,9"
     id="path5350" /><path
     class="st0"
     d="M769.1,755.4c0,0-18.1-182.5-11.8-195.8s26.4-20.7,26.4-20.7s-22.9-0.6-30.5,6.3s-17.4,8.6-27.8,6.9  s-20.8-4.6-35.4-3.5c0,0,38.9,4,41.7,24.2s-4.2,182.5-4.2,182.5"
     id="path5352" /><path
     class="st0"
     d="M957.1,756.3c0,0-9.7-24.6-2.3-32.8s21.8-7.3,26.7,1.4c0,0,1.4-8.9,11.7-10.4s13.3,8.1,13.6,12  c0,0,8.3-6.9,17.7-5.7s11.7,9.4,9.9,12.4c0,0,24.7,0.3,15.6,23.2"
     id="path5354" /><path
     class="st0"
     d="M813.8,757.6c0,0-14.8-9-5.9-26s26.5-3.5,26.5-3.5s6.8-36.5,45.6-29.5s24.8,58.9,24.8,58.9"
     id="path5356" /><path
     class="st0"
     d="M1696.9,233.2c58.1-14.3,138.2-38.6,197.8-77.7c0,0,99.2-48.9,170.6,5.1"
     id="path5358" /><path
     class="st0"
     d="M0.6,393.6c0,0,357.2-146.6,527.8-148.3s252.3-23.7,283.5-32.2s50.5-15.2,72.1-11.9s9.6,13.5,43.3,6.8  s48-37.3,81.7-22s120.1,91.4,163.4,93.1s69.7-20.3,69.7-20.3s33.6-8.5,57.7,6.8s29.4,20.9,40.8,23.7c55.1,13.8,202.8,14.5,226.8-4.1  "
     id="path5360" /><path
     class="st0"
     d="M2192.2,219.4c0,0,27.5,34.4,59.1,26.4"
     id="path5362" /><path
     class="st0"
     d="M41.3,709.7c-2.3-0.9-5.9-1.9-8.8-4.6s-7.8-16.5-8.4-25.2c-0.3-4.2,2.2-4.8,2.2-7.8c0-7.8,0.4-24.9,0.4-26.2  s0-3.3,2.7-7.2s3.9-6.5,6.9-7.6c6.2-2.4,4.2-7.8,4.2-11.4c0.3-16.6,7.8-41,9.5-46.5c2.5-8.2,9-23.9,31.5-46.8c0,0-3.6-6.3-5.3-7.8  s1.7-2.3,6.6-3.5s71.9-11.4,150.6-11.4s125.7,2.6,173.8,32c48.1,29.4,72.4,41.8,76.7,44.1c2.3,0.3,42.4,8.4,55.9,13.5  s44.7,11,58.2,40.4c3.5,7.5,6,15.6,9.8,19s7.2,20.5,4.9,30.6s-8.4,17.3-1.4,23.1s5.5,6.9,0.6,8.7s-15.3,5.8-22.5,5.8  s-10.5-0.2-10.5-2c2-64.3-41.5-73.4-59.6-72.4c-57.2,3.3-57,55-59.6,75.3c-10.1,1.4-122,0.2-163.8-1s-129.4-0.3-135.2-0.3  c-0.6-9.5,1.1-76.7-59.1-76.4C45.3,644.3,43.3,691.3,41.3,709.7z"
     id="path5364" /><path
     class="st0"
     d="M491.9,581.2c1.6,3.3,8.5,11.5,10.9,12.9s10.2,3.6,16.3,5.5s33.9,8.7,36.6,10.9"
     id="path5366" /><path
     class="st0"
     d="M235.7,611.8c0-5,5.5-7.4,8.5-7.3s8.5,2.8,8.5,7.4"
     id="path5368" /><path
     class="st0"
     d="M252.7,616.9c0,5-5.5,7.4-8.5,7.3s-8.5-2.8-8.5-7.4"
     id="path5370" /><path
     class="st0"
     d="M218.3,516.6c-15.3-0.1-77,4-84.5,6s-8.7,4.6-11.2,7.8s-18.2,26.8-18.2,38.9s3.8,11,10.7,11.2  s103.5,6.6,113,6.6"
     id="path5372" /><path
     class="st0"
     d="M437.8,571.8c-0.3-1.3-0.7-2.6-1.3-3.9c-13-8.7-67.5-40.9-98-44.7s-111-7.2-120.2-6.6  c1.4,6.9,9.5,62.6,9.8,70.6c10.7,1.4,194.6,12.7,215.1,13.3c-0.1-1.3-0.4-3.3-0.7-5.6C441.2,587.9,438.5,578.1,437.8,571.8z"
     id="path5374" /><path
     class="st0"
     d="M398,579.6c0.7-1.3,5.8-6.5,11.3-6.6s17,3.2,21.9,7.3c0.6,2.2-1.5,8.5-5.3,13.8c-4.8,2.3-21,1-27.1,0  C396.7,592.3,396.5,584.8,398,579.6z"
     id="path5376" /><path
     class="st0"
     d="M436.5,567.9c12.8,7.6,33.6,19.2,34.7,24.4s-5.3,7.3-11,8.2c-3.7,0.6-14.7,0.1-17.1,0L436.5,567.9z"
     id="path5378" /><path
     class="st0"
     d="M443.1,600.5c2.3,5.7,4.9,26.5,3.8,57.7c0,0-3.5,33.7-7.9,54.1"
     id="path5380" /><path
     class="st0"
     d="M234.4,709.1c-8.4-0.6-13.3-9.8-16.1-53.9s3.5-57.1,9.8-68"
     id="path5382" /><path
     class="st0"
     d="M226.8,613.9c-0.1,1.3,0.7,2.9,4,2.6c5.9-0.5,23.2,0.5,26.2,1.2c2.8,0.6,5.2-4.1,1.6-5.2s-14.4-1.3-19.8-1.3  C230.2,611.1,227,610.7,226.8,613.9z"
     id="path5384" /><path
     class="st0"
     d="M597.1,631.3c-1.8-3.3-12.7-16.5-28.5-19.3c-15.6-2.7-17.7-1.7-20.1,0.9s-2.8,4.9,0,7.5  c6.2,5.9,26.7,20.6,38.9,25.9c3,1.3,4.4-2.6,6.4-2.6s9.3,1.4,9.7,1.8"
     id="path5386" /><path
     class="st0"
     d="M455.8,618.8h8c1.6,0,2.9,1.3,2.9,2.9v0c0,1.6-1.3,2.9-2.9,2.9h-8c-1.6,0-2.9-1.3-2.9-2.9v0  C452.9,620.1,454.2,618.8,455.8,618.8z"
     id="path5388" /><path
     class="st0"
     d="M608.5,697.2c-2.3,1-10.6,3.6-12.5,4.4c-0.7,1.7-1.2,3.4-1.6,5.2c2.5-0.1,11.4-1.1,15.1-2.4l0,0  C608.1,702.1,608,699.8,608.5,697.2z"
     id="path5390" /><circle
     class="st0"
     cx="84.6"
     cy="609.6"
     r="13.2"
     id="circle5392" /><path
     class="st0"
     d="M71.5,606.2c1.5,0,4.4,0.1,4.4,2.5c0,2.7-2.1,3.4-4.1,3.5C70.4,611.4,70.7,607.3,71.5,606.2z"
     id="path5394" /><path
     class="st0"
     d="M160.2,707.5c0.6,6.1,0.6,10.8,0.7,12.9c5.8,0,93.4-0.9,135.2,0.3s153.7,2.4,163.8,1c0.4-2.8,0.7-6.2,1.1-9.9  l-289.2-2.6"
     id="path5396" /><circle
     class="st0"
     cx="519.9"
     cy="706.6"
     r="50.2"
     id="circle5398" /><circle
     class="st0"
     cx="519.9"
     cy="706.6"
     r="34.9"
     id="circle5400" /><path
     class="st0"
     d="M527.6,701.7l16.3-8.8c1.5-0.8,2-2.6,1.2-4.1c-0.1-0.1-0.1-0.3-0.2-0.4c-3.9-5.4-9.4-9.4-15.7-11.4  c-1.6-0.5-3.3,0.3-3.8,1.9c0,0.1-0.1,0.3-0.1,0.4l-3.2,18.3c-0.4,2,0.9,4,3,4.4C526,702.2,526.8,702.1,527.6,701.7z M517.6,697.7  l-3.3-18.3c-0.3-1.6-1.8-2.7-3.5-2.4c-0.1,0-0.3,0.1-0.4,0.1c-6.3,2.1-11.8,6.1-15.6,11.5c-1,1.3-0.7,3.2,0.7,4.2  c0.1,0.1,0.2,0.2,0.4,0.2l16.4,8.7c1.8,0.9,4.1,0.2,5.1-1.6C517.6,699.3,517.7,698.5,517.6,697.7L517.6,697.7z M516.5,715.1  l-8.1,16.7c-0.7,1.5-0.1,3.3,1.4,4c0.1,0.1,0.3,0.1,0.4,0.2c6.3,2.1,13.1,2.1,19.4,0c1.6-0.5,2.4-2.2,1.9-3.8c0-0.1-0.1-0.3-0.2-0.4  l-8.1-16.7c-0.9-1.9-3.1-2.7-5-1.8C517.5,713.7,516.9,714.3,516.5,715.1L516.5,715.1z M547.4,703.4L529,706  c-2.1,0.3-3.5,2.2-3.2,4.2c0.1,0.8,0.5,1.6,1.1,2.2l13.4,12.8c1.2,1.2,3.1,1.1,4.2-0.1c0.1-0.1,0.2-0.2,0.3-0.3  c3.9-5.3,6-11.7,6-18.3c0-0.1,0-0.2,0-0.2c0-1.7-1.3-3-3-3C547.7,703.4,547.5,703.4,547.4,703.4L547.4,703.4z M510.7,706l-18.4-2.4  c-1.6-0.2-3.2,0.9-3.4,2.6c0,0.1,0,0.3,0,0.4l0,0c0,6.7,2.1,13.1,6.1,18.5c1,1.3,2.9,1.6,4.2,0.6c0.1-0.1,0.2-0.2,0.3-0.3l13.3-12.9  c1.5-1.5,1.5-3.8,0.1-5.3C512.3,706.5,511.6,706.1,510.7,706z"
     id="path5402" /><circle
     class="st0"
     cx="519.9"
     cy="706.6"
     r="2.5"
     id="circle5404" /><circle
     class="st0"
     cx="99.8"
     cy="706.3"
     r="51.3"
     id="circle5406" /><circle
     class="st0"
     cx="99.8"
     cy="706.6"
     r="36"
     id="circle5408" /><path
     class="st0"
     d="M107.7,701.5l16.8-9.1c1.5-0.8,2.1-2.7,1.3-4.2c-0.1-0.1-0.1-0.2-0.2-0.3c-4-5.5-9.7-9.6-16.2-11.7  c-1.6-0.5-3.4,0.4-3.9,2c0,0.1-0.1,0.3-0.1,0.4l-3.3,18.8c-0.4,2.1,1,4.1,3.1,4.5C106.1,702.1,107,701.9,107.7,701.5z M97.4,697.4  L94,678.7c-0.3-1.7-1.9-2.8-3.6-2.5c-0.1,0-0.3,0.1-0.4,0.1c-6.5,2.1-12.1,6.3-16.1,11.8c-1,1.4-0.7,3.3,0.7,4.3  c0.1,0.1,0.2,0.2,0.3,0.2l16.9,8.9c1.9,1,4.2,0.2,5.2-1.7C97.4,699.1,97.6,698.3,97.4,697.4L97.4,697.4z M96.3,715.3L88,732.5  c-0.8,1.5-0.1,3.4,1.4,4.2c0.1,0.1,0.2,0.1,0.4,0.2c6.5,2.1,13.5,2.1,20,0c1.6-0.5,2.5-2.3,2-3.9c0-0.1-0.1-0.2-0.2-0.4l-8.3-17.2  c-0.9-1.9-3.2-2.7-5.2-1.8C97.3,713.9,96.7,714.5,96.3,715.3z M128.1,703.3l-18.9,2.6c-2.1,0.3-3.6,2.3-3.3,4.4  c0.1,0.9,0.5,1.6,1.1,2.2l13.8,13.2c1.2,1.2,3.2,1.2,4.4-0.1c0.1-0.1,0.2-0.2,0.3-0.3c4-5.5,6.2-12.1,6.2-18.8c0-0.1,0-0.2,0-0.2  c0-1.7-1.4-3.1-3.2-3C128.3,703.3,128.2,703.3,128.1,703.3z M90.4,706l-18.9-2.5c-1.7-0.2-3.2,0.9-3.5,2.6c0,0.1,0,0.2,0,0.4l0,0  c0,6.8,2.2,13.5,6.3,19c1,1.4,3,1.6,4.4,0.6c0.1-0.1,0.2-0.2,0.3-0.3l13.7-13.3c1.5-1.5,1.5-4,0-5.5C92,706.5,91.2,706.1,90.4,706z"
     id="path5410" /><circle
     class="st0"
     cx="99.8"
     cy="706.6"
     r="2.6"
     id="circle5412" /><line
     class="st0"
     x1="406.1"
     y1="573.5"
     x2="406.1"
     y2="550.5"
     id="line5414" /></svg>