<?xml version="1.0" encoding="UTF-8" standalone="no"?>
<svg
   xmlns:dc="http://purl.org/dc/elements/1.1/"
   xmlns:cc="http://creativecommons.org/ns#"
   xmlns:rdf="http://www.w3.org/1999/02/22-rdf-syntax-ns#"
   xmlns:svg="http://www.w3.org/2000/svg"
   xmlns="http://www.w3.org/2000/svg"
   xmlns:sodipodi="http://sodipodi.sourceforge.net/DTD/sodipodi-0.dtd"
   xmlns:inkscape="http://www.inkscape.org/namespaces/inkscape"
   version="1.1"
   id="Layer_1"
   x="0px"
   y="0px"
   viewBox="0 0 238.6 474.2"
   style="enable-background:new 0 0 238.6 474.2;"
   xml:space="preserve"
   sodipodi:docname="chel1.svg"
   inkscape:version="0.92.1 r15371"><metadata
     id="metadata6605"><rdf:RDF><cc:Work
         rdf:about=""><dc:format>image/svg+xml</dc:format><dc:type
           rdf:resource="http://purl.org/dc/dcmitype/StillImage" /></cc:Work></rdf:RDF></metadata><defs
     id="defs6603" /><sodipodi:namedview
     pagecolor="#ffffff"
     bordercolor="#666666"
     borderopacity="1"
     objecttolerance="10"
     gridtolerance="10"
     guidetolerance="10"
     inkscape:pageopacity="0"
     inkscape:pageshadow="2"
     inkscape:window-width="1366"
     inkscape:window-height="705"
     id="namedview6601"
     showgrid="false"
     inkscape:zoom="1.9907212"
     inkscape:cx="105.90769"
     inkscape:cy="181.69236"
     inkscape:window-x="-8"
     inkscape:window-y="-8"
     inkscape:window-maximized="1"
     inkscape:current-layer="Layer_1" /><style
     type="text/css"
     id="style6524">
	.st0{fill:none;stroke:#000000;stroke-width:3.4;stroke-linecap:round;stroke-linejoin:round;}
</style><title
     id="title6526">SVG</title><path
     class="st0"
     d="M182.1,93.8l-21,1.7l1.5-9.7l-14.4-16.6c0,0-3.4-7.9,2.2-7.7s0.1-11.1,6.4-6.4s-0.7-8.7,5.2-6.4"
     id="path6528" /><line
     class="st0"
     x1="162.1"
     y1="47.3"
     x2="195.6"
     y2="69.3"
     id="line6530" /><path
     class="st0"
     d="M171.3,165c77.4-35.4,35.5-54.7,8.1-65.6c0,0,11.8-23.8,17.8-33.1c90.1,59.7,2.1,108-23.9,118.6"
     id="path6532" /><polygon
     class="st0 stbl"
     points="69.8,108.8 102.8,114.8 104.2,105.8 68.8,102.1 "
     id="polygon6534" /><polygon
     class="st0 stbr"
     points="149.6,108.4 118.6,114.2 117.1,105.8 150.5,102.1 "
     id="polygon6536" /><path
     class="st0"
     d="M168,51.3c3.2-13.2,1.4-27.5-7.6-37.4c3.3,12.3-4.3,15.5-12.5,22.2c7.8-11.2-1.4-30.1-14.6-34.4  c19.9,33.4-21.7,31.2-41.9,30.9C80.1,32.4,64,30.8,58.2,42.9c-2.7,5.6-2.9,12.7,0.2,18.2c3.2,5.8,9.7,6.5,15.5,8.4  c6.1,1.9,12,4.5,17.4,7.9c5.8,3.6,11.7,7.7,18.7,8.9c10.3,1.8,21.4,0.4,31.4-2.8c4.5-1.5,8.7-3.9,12.2-7.1"
     id="path6538" /><path
     class="st0"
     d="M69,68.8c-3.7,0.3-8,0.9-11.1,2.9c-10.7,6.8-12,22.2-12.6,33.5c-0.1,2.5,0.4,5.9-1.2,8  c-5.3-2.9-6.4-14.2-8-19.5c-3.4-11-5.7-26.7,1.3-36.9c1.8-2.6,4.5-4.4,7.7-5.1c3.4-0.7,6.9-0.4,10.2,0.8"
     id="path6540" /><ellipse
     class="st0"
     cx="128.8"
     cy="125.6"
     rx="3"
     ry="5"
     id="ellipse6542" /><ellipse
     class="st0"
     cx="94.7"
     cy="125.6"
     rx="3"
     ry="5"
     id="ellipse6544" /><path
     class="st0"
     d="M108.4,342.3c-16.2-1.6-29.8-5.9-34.4-8.8c0,0-6.9-1.8-8.1-5.7l-37.5-14.3"
     id="path6546" /><path
     class="st0"
     d="M172.8,298.5c1.9,8.4,0.9,22.9-4.8,29.4c-9.4,8.7-22.1,12.9-35,14.4"
     id="path6548" /><path
     class="st0"
     d="m 172.8,298.5 c 5.7,-16.6 1.4,-127.1 -1.5,-133.8 l -56.11377,24.21165"
     id="path6550"
     inkscape:connector-curvature="0"
     style="fill:none;stroke:#000000;stroke-width:3.4000001;stroke-linecap:round;stroke-linejoin:round"
     sodipodi:nodetypes="ccc" /><path
     class="st0"
     d="M 115.18623,188.91165 48.9,173 c 0.9,21.6 8.7,105.8 9.4,106.7"
     id="path6552"
     inkscape:connector-curvature="0"
     style="fill:none;stroke:#000000;stroke-width:3.4000001;stroke-linecap:round;stroke-linejoin:round"
     sodipodi:nodetypes="ccc" /><path
     class="st0"
     d="M50,190.6c-37.1,29.2-31.5,64.4-7.2,89.8c0,0-9.8,24.1-14.4,33c-63.6-68.8,4.4-128.9,20.5-140.4"
     id="path6554" /><path
     class="st0"
     d="M126.2,159.7c0.3,4.4-6.1,6.3-14.2,6.8s-14.7-0.3-15-4.7s5.8-10.7,13.9-11.3S125.8,155.3,126.2,159.7z"
     id="path6556" /><path
     class="st0"
     d="M96.9,162.1c0.5,4.2,7.1,5.1,15,4.5c6.8-0.5,12.4-1.9,13.8-4.9C117.7,161.1,105.2,161.6,96.9,162.1z"
     id="path6558" /><line
     class="st0"
     x1="44"
     y1="113.1"
     x2="48.9"
     y2="173"
     id="line6566" /><line
     class="st0"
     x1="163.3"
     y1="108.8"
     x2="171.3"
     y2="164.7"
     id="line6568" /><path
     class="st0"
     d="M65.9,327.8c0,0,17.6-2.2,7.6-6.3s10.5-6.5,1.8-9.1s12.8-5.3,1.6-8.6L59.1,291v-3.7c7.4-4.2-1.4-8.5-1.4-8.5  L41.3,284"
     id="path6570" /><line
     class="st0"
     x1="73.1"
     y1="311.1"
     x2="55.2"
     y2="301.6"
     id="line6572" /><line
     class="st0"
     x1="70.7"
     y1="319.5"
     x2="52.9"
     y2="309.3"
     id="line6574" /><line
     class="st0"
     x1="152.2"
     y1="61.2"
     x2="164.7"
     y2="72.1"
     id="line6576" /><line
     class="st0"
     x1="158.4"
     y1="56.2"
     x2="173.7"
     y2="66.6"
     id="line6578" /><polygon
     class="st0"
     points="163.3,204.7 137.6,204.7 137.6,229.2 150.5,238 163.1,229.2 "
     id="polygon6580" /><line
     class="st0"
     x1="137.6"
     y1="210.9"
     x2="163.3"
     y2="210.9"
     id="line6582" /><line
     class="st0"
     x1="161.1"
     y1="95.6"
     x2="163.3"
     y2="108.8"
     id="line6584" /><path
     class="st0"
     d="M116.9,363.8c0,0,26,0.9,26,24v84.7H178c0,0,0.7-7-5.5-7s-12.1,0.7-12.1-7.2s9.5-133,9.5-133"
     id="path6586" /><path
     class="st0"
     d="M117.2,363.8c0,0-26,0.9-26,24v84.7h-35c0,0-0.7-7,5.5-7s12.1,0.7,12.1-7.2S64.7,327,64.7,327"
     id="path6588" /><circle
     class="st0"
     cx="121.3"
     cy="327.8"
     r="19.1"
     id="circle6590" /><path
     class="st0"
     d="M103.4,321.1c-17.3-0.9-20.2-5.1-25.2-8.3"
     id="path6596" /><path
     class="st0"
     d="M169.6,305.9c-9.4,8.7-18,13-30.6,14.8"
     id="path6598" /><path
     style="fill:#2a7fff;fill-opacity:1;stroke:none;stroke-width:4.01864433;stroke-linecap:round;stroke-linejoin:round;stroke-miterlimit:4;stroke-dasharray:none;stroke-dashoffset:0;stroke-opacity:1;paint-order:normal"
     d="m 100.29059,318.96795 c -0.690702,-0.10139 -2.917959,-0.42986 -4.949456,-0.72994 -5.236583,-0.77352 -8.554862,-2.03929 -13.005216,-4.96091 -2.132914,-1.40023 -4.16479,-2.43584 -4.515278,-2.30134 -1.384282,0.53119 -0.540486,-0.6468 0.886766,-1.23798 1.734219,-0.71834 3.499287,-2.73182 3.499287,-3.99177 0,-0.94782 -1.751083,-2.70306 -3.216064,-3.22371 -2.129592,-0.75685 -17.881818,-12.50935 -17.881818,-13.34136 0,-0.47366 0.553396,-1.38109 1.229769,-2.01651 2.43038,-2.28322 2.155405,-4.96041 -0.829728,-8.0783 -1.633134,-1.70577 -1.723519,-2.0082 -2.32701,-7.78613 -3.289723,-31.49637 -8.597471,-94.8647 -7.996251,-95.46592 0.135299,-0.1353 14.39407,3.15249 31.686157,7.30621 17.292092,4.15371 31.816472,7.55221 32.276412,7.55221 0.45995,0 12.92352,-5.21579 27.69683,-11.59064 14.77332,-6.37486 26.95341,-11.49781 27.06688,-11.38435 0.3333,0.3333 1.61167,16.35178 2.19434,27.49596 2.0422,39.05894 1.99246,83.22919 -0.1089,96.69863 -0.34483,2.21025 -0.59364,6.1661 -0.55293,8.79078 0.0407,2.62468 -0.0347,4.48958 -0.16744,4.14423 -0.52227,-1.35812 -2.75079,-0.58454 -5.82409,2.0217 -6.52513,5.53349 -13.82897,9.19215 -22.05055,11.04562 l -3.35386,0.75609 -0.60463,-1.45968 c -0.33254,-0.80284 -1.79472,-2.6498 -3.24928,-4.10436 -6.49198,-6.49197 -16.01717,-8.07384 -24.3186,-4.03865 -3.1309,1.52188 -8.03296,6.20175 -9.03815,8.62848 -0.36286,0.87604 -0.80187,1.56202 -0.97556,1.52439 -0.17369,-0.0376 -0.88092,-0.15136 -1.57163,-0.25275 z m 57.04251,-83.34603 c 3.43073,-2.36444 6.57979,-4.64107 6.99791,-5.05919 0.63934,-0.63934 0.76022,-2.81524 0.76022,-13.68446 0,-9.38242 -0.16519,-13.08944 -0.6028,-13.52704 -0.43936,-0.43937 -4.31611,-0.6028 -14.29875,-0.6028 -13.02667,0 -13.72135,0.0475 -14.21595,0.97164 -0.31778,0.59379 -0.52,5.74874 -0.52,13.2561 0,10.97054 0.094,12.39512 0.87908,13.31892 1.1537,1.35762 13.24377,9.60261 14.09997,9.61568 0.36444,0.006 3.46959,-1.92442 6.90032,-4.28885 z"
     id="path7165"
     inkscape:connector-curvature="0" /><path
     style="fill:#2a7fff;fill-opacity:1;stroke:none;stroke-width:4.01864433;stroke-linecap:round;stroke-linejoin:round;stroke-miterlimit:4;stroke-dasharray:none;stroke-dashoffset:0;stroke-opacity:1;paint-order:normal"
     d="m 144.86647,231.77736 -5.3941,-3.63823 v -7.67204 -7.67205 h 10.80011 10.80011 v 7.70653 7.70653 l -4.77533,3.36173 c -2.62643,1.84895 -5.05914,3.47064 -5.40601,3.60374 -0.34688,0.13311 -3.05803,-1.39518 -6.02478,-3.39621 z"
     id="path7167"
     inkscape:connector-curvature="0" /><path
     style="fill:#2a7fff;fill-opacity:1;stroke:none;stroke-width:4.01864433;stroke-linecap:round;stroke-linejoin:round;stroke-miterlimit:4;stroke-dasharray:none;stroke-dashoffset:0;stroke-opacity:1;paint-order:normal"
     d="M 24.078659,305.34944 C 14.333869,293.24904 8.225056,281.04701 5.0285768,267.2979 3.6988719,261.5784 3.704463,245.55058 5.0383023,239.41856 7.8460604,226.51053 14.157659,213.36005 23.560277,200.82727 c 5.620216,-7.49121 22.450548,-24.39554 23.371664,-23.47443 0.158835,0.15884 0.463081,2.88601 0.676101,6.06039 l 0.387309,5.77159 -6.911974,6.90739 c -7.017154,7.01249 -10.796002,12.00982 -14.149637,18.71215 -9.874269,19.73399 -6.221276,41.94206 10.221036,62.13794 l 3.353256,4.11876 -5.326483,12.45814 c -5.098564,11.92507 -7.061257,16.22563 -7.405064,16.22563 -0.08695,0 -1.750973,-1.97793 -3.697826,-4.39539 z"
     id="path7169"
     inkscape:connector-curvature="0" /><path
     style="fill:#2a7fff;fill-opacity:1;stroke:none;stroke-width:4.01864433;stroke-linecap:round;stroke-linejoin:round;stroke-miterlimit:4;stroke-dasharray:none;stroke-dashoffset:0;stroke-opacity:1;paint-order:normal"
     d="m 175.13784,180.69911 c 0,-1.35801 -0.95293,-11.04748 -1.27602,-12.97475 l -0.27143,-1.61908 7.04898,-3.53122 c 18.77626,-9.40604 30.54028,-18.46047 34.75269,-26.74816 2.19135,-4.31136 2.53736,-9.3689 0.93206,-13.62374 -1.36789,-3.62558 -5.96152,-8.66573 -11.1768,-12.26323 -3.78649,-2.61192 -13.1474,-7.4501 -19.20937,-9.92835 -1.93398,-0.79065 -3.59843,-1.495074 -3.69879,-1.565391 -0.21623,-0.151501 8.57121,-17.167604 12.02675,-23.288713 3.92371,-6.950453 2.86269,-6.780879 9.83769,-1.572279 7.59573,5.67213 16.30747,13.980091 20.56494,19.611774 3.70437,4.900062 7.86063,12.912259 9.01304,17.374809 0.42808,1.65769 0.91108,4.94334 1.07332,7.30145 1.22482,17.80155 -12.8268,36.93571 -39.12153,53.27199 -5.65637,3.51417 -18.9396,10.50633 -19.95921,10.50633 -0.29498,0 -0.53632,-0.42815 -0.53632,-0.95144 z"
     id="path7171"
     inkscape:connector-curvature="0" /><path
     style="fill:#ff0000;fill-opacity:1;stroke:none;stroke-width:4.01864433;stroke-linecap:round;stroke-linejoin:round;stroke-miterlimit:4;stroke-dasharray:none;stroke-dashoffset:0;stroke-opacity:1;paint-order:normal"
     d="m 139.6643,207.77173 c 0,-0.9735 0.33488,-1.00466 10.8001,-1.00466 10.46522,0 10.80011,0.0312 10.80011,1.00466 0,0.97351 -0.33489,1.00466 -10.80011,1.00466 -10.46522,0 -10.8001,-0.0311 -10.8001,-1.00466 z"
     id="path7173"
     inkscape:connector-curvature="0" /><path
     style="fill:#803300;fill-opacity:1;stroke:none;stroke-width:4.01864433;stroke-linecap:round;stroke-linejoin:round;stroke-miterlimit:4;stroke-dasharray:none;stroke-dashoffset:0;stroke-opacity:1;paint-order:normal"
     d="m 95.605543,338.37326 c -8.511904,-1.76817 -14.013547,-3.47772 -20.516228,-6.37513 l -5.894391,-2.62637 3.211116,-0.90541 c 3.926923,-1.10723 5.671171,-2.33627 5.886004,-4.14742 0.1911,-1.61107 -0.922153,-3.0177 -3.39052,-4.28405 l -1.721345,-0.8831 1.469654,-0.89491 c 0.80831,-0.4922 2.061388,-1.29926 2.784618,-1.79347 1.285686,-0.87856 1.356459,-0.87037 3.178715,0.36789 4.492464,3.05271 12.541805,5.68281 17.462104,5.70569 0.909563,0.004 1.8798,0.17377 2.15608,0.37675 0.27628,0.20298 0.50726,2.62954 0.51329,5.39236 0.01,4.40123 0.18068,5.38852 1.38141,7.97241 0.75375,1.62201 1.37045,3.03481 1.37045,3.13957 0,0.40706 -2.4867,0.0778 -7.890957,-1.04481 z"
     id="path7181"
     inkscape:connector-curvature="0" /><path
     style="fill:#803300;fill-opacity:1;stroke:none;stroke-width:4.01864433;stroke-linecap:round;stroke-linejoin:round;stroke-miterlimit:4;stroke-dasharray:none;stroke-dashoffset:0;stroke-opacity:1;paint-order:normal"
     d="m 140.54165,336.28227 c 1.24806,-2.66449 1.38314,-3.49572 1.38314,-8.5113 v -5.55843 l 3.76747,-0.85523 c 2.07212,-0.47037 5.57587,-1.5898 7.78613,-2.48761 7.36176,-2.99036 17.50084,-10.48098 18.019,-13.31219 0.13723,-0.74981 0.15548,1.01023 0.0406,3.91119 -0.38096,9.6175 -2.52539,15.13552 -7.42774,19.113 -5.39361,4.37606 -16.24477,9.26116 -22.95512,10.33419 l -1.99659,0.31926 z"
     id="path7183"
     inkscape:connector-curvature="0" /><path
     style="fill:#000000;fill-opacity:1;stroke:none;stroke-width:4.01864433;stroke-linecap:round;stroke-linejoin:round;stroke-miterlimit:4;stroke-dasharray:none;stroke-dashoffset:0;stroke-opacity:1;paint-order:normal"
     d="m 58.286753,470.04115 c 0,-0.3716 0.466381,-1.09771 1.036402,-1.61357 0.811217,-0.73414 2.148227,-1.00219 6.153549,-1.23368 5.353525,-0.30941 6.426548,-0.64726 8.208564,-2.58453 1.922392,-2.08987 2.20801,-4.44743 1.66262,-13.72364 -0.587181,-9.987 -4.309443,-63.48757 -6.667339,-95.83054 -0.901343,-12.36361 -1.562511,-22.47929 -1.469263,-22.47929 0.09325,0 1.005495,0.44582 2.027218,0.99072 8.488194,4.52686 20.365215,8.08432 32.778236,9.81789 3.43855,0.48022 6.59711,1.17281 7.01902,1.53909 2.05985,1.78822 6.83623,3.40919 10.70561,3.63318 5.01496,0.29031 8.4783,-0.48604 12.20477,-2.73585 2.13954,-1.29172 4.10876,-1.98254 7.19342,-2.5235 8.92795,-1.5657 19.97267,-5.98283 25.51568,-10.20451 l 2.63724,-2.00859 v 1.64995 c 0,0.90747 -0.90103,13.65059 -2.00228,28.31804 -3.67819,48.9895 -6.54939,90.22849 -6.63974,95.36636 -0.0745,4.23484 0.0737,5.36473 0.88556,6.75118 1.8069,3.08587 3.18616,3.70212 9.14762,4.08713 2.96466,0.19147 5.43067,0.3701 5.48,0.39697 0.64459,0.35103 1.66846,1.79019 1.66846,2.34522 0,0.6065 -2.41119,0.71761 -15.57225,0.71761 H 144.6876 l -0.006,-43.57717 c -0.007,-47.70192 0.0949,-45.9678 -3.03361,-51.83759 -4.63765,-8.70115 -18.08598,-14.74952 -28.60724,-12.86609 -9.90428,1.77298 -17.865196,6.91371 -21.120638,13.63856 -2.506929,5.17862 -2.476571,4.55425 -2.482934,51.06512 l -0.006,43.57717 H 73.859 c -12.709594,0 -15.572247,-0.1242 -15.572247,-0.67564 z"
     id="path7185"
     inkscape:connector-curvature="0" /><path
     style="fill:#000000;fill-opacity:1;stroke:none;stroke-width:4.01864433;stroke-linecap:round;stroke-linejoin:round;stroke-miterlimit:4;stroke-dasharray:none;stroke-dashoffset:0;stroke-opacity:1;paint-order:normal"
     d="M 112.28728,84.685071 C 106.33125,83.789275 102.95299,82.327367 93.984378,76.76471 87.00884,72.438227 81.997649,70.154512 73.810786,67.571142 70.107499,66.40257 66.033251,64.926387 64.756902,64.290738 60.033892,61.93858 58.022736,57.678169 58.384225,50.790917 58.740279,44.0072 61.729979,39.278161 67.189309,36.86324 c 4.765002,-2.107787 8.010212,-2.392127 27.516407,-2.410938 20.155224,-0.01944 25.566794,-0.465256 32.544504,-2.681092 6.47188,-2.055204 10.28059,-5.084659 12.25961,-9.751305 1.10034,-2.594664 0.98386,-8.152115 -0.25267,-12.055736 -0.54698,-1.7267612 -0.81112,-3.1395658 -0.58699,-3.1395658 0.22413,0 1.61572,1.3351237 3.09243,2.9669416 3.0572,3.3783122 5.66021,8.2419822 6.49546,12.1366222 0.79204,3.693141 0.34112,8.780187 -1.01342,11.432937 -1.3207,2.586466 -1.22567,4.295851 0.25053,4.506754 1.20344,0.171934 9.00836,-5.632325 11.7075,-8.706478 1.94165,-2.211414 3.53162,-5.43883 3.58,-7.266861 0.0296,-1.119456 0.14866,-1.037634 1.09622,0.753496 2.11459,3.997103 2.98486,7.828607 3.26854,14.39021 0.15106,3.494107 0.11879,7.392302 -0.0717,8.662656 l -0.34637,2.309733 -1.84437,-1.253281 c -2.39539,-1.627712 -3.66548,-1.581232 -5.57667,0.204087 -1.49195,1.393693 -1.79381,2.358297 -1.57045,5.018462 0.0827,0.984359 -0.0661,1.132852 -0.82347,0.822087 -2.0389,-0.836583 -2.73259,-0.850348 -3.91192,-0.07762 -0.9903,0.648871 -1.2968,1.386682 -1.56656,3.771016 -0.33417,2.953688 -0.34206,2.965377 -2.20127,3.262677 -5.17687,0.827815 -5.38824,7.525041 -0.41367,13.106396 l 2.5551,2.866755 -1.46049,1.192849 c -6.96963,5.692419 -25.69836,9.555316 -37.6283,7.761032 z"
     id="path7187"
     inkscape:connector-curvature="0" /><path
     style="fill:#000000;fill-opacity:1;stroke:none;stroke-width:4.01864433;stroke-linecap:round;stroke-linejoin:round;stroke-miterlimit:4;stroke-dasharray:none;stroke-dashoffset:0;stroke-opacity:1;paint-order:normal"
     d="m 42.011412,107.599 c -0.945566,-2.11063 -5.417287,-18.882313 -6.253081,-23.452862 -2.555577,-13.975192 0.43361,-26.321028 7.161434,-29.577912 2.374103,-1.149284 6.292807,-1.511232 9.426321,-0.870656 1.724711,0.352579 1.880632,0.541283 2.383086,2.884145 0.813164,3.791653 2.747797,7.166972 5.42131,9.458458 1.734894,1.486989 2.145441,2.063172 1.471735,2.065511 -1.741639,0.006 -6.90404,3.178906 -9.042938,5.557876 -5.562701,6.187061 -7.807024,13.750063 -9.308068,31.36666 l -0.385216,4.52097 z"
     id="path7189"
     inkscape:connector-curvature="0" /><path
     style="fill:#000000;fill-opacity:1;stroke:none;stroke-width:4.01864433;stroke-linecap:round;stroke-linejoin:round;stroke-miterlimit:4;stroke-dasharray:none;stroke-dashoffset:0;stroke-opacity:1;paint-order:normal"
     d="m 85.035854,109.65703 -13.688507,-2.54056 v -1.47578 c 0,-1.3867 0.09854,-1.45912 1.632574,-1.19979 0.897916,0.15179 7.811809,0.89935 15.364207,1.66123 l 13.731632,1.38524 -0.29429,1.47145 c -0.16186,0.8093 -0.29429,1.89529 -0.29429,2.41332 0,1.29718 -0.50454,1.24458 -16.451326,-1.71511 z"
     id="path7191"
     inkscape:connector-curvature="0" /><path
     style="fill:#000000;fill-opacity:1;stroke:none;stroke-width:4.01864433;stroke-linecap:round;stroke-linejoin:round;stroke-miterlimit:4;stroke-dasharray:none;stroke-dashoffset:0;stroke-opacity:1;paint-order:normal"
     d="m 119.81652,109.76851 c -0.18985,-1.12374 -0.26623,-2.11002 -0.16973,-2.19172 0.0965,-0.0817 5.82667,-0.75777 12.73372,-1.50236 6.90704,-0.7446 13.29292,-1.47884 14.19083,-1.63166 1.40181,-0.23858 1.63258,-0.13213 1.63258,0.75306 0,0.56701 -0.2359,1.17671 -0.52421,1.3549 -0.46394,0.28673 -26.10218,5.26095 -27.11611,5.26095 -0.22104,0 -0.55722,-0.91942 -0.74708,-2.04317 z"
     id="path7193"
     inkscape:connector-curvature="0" /></svg>