<?xml version="1.0" encoding="UTF-8" standalone="no"?>
<svg
   xmlns:dc="http://purl.org/dc/elements/1.1/"
   xmlns:cc="http://creativecommons.org/ns#"
   xmlns:rdf="http://www.w3.org/1999/02/22-rdf-syntax-ns#"
   xmlns:svg="http://www.w3.org/2000/svg"
   xmlns="http://www.w3.org/2000/svg"
   xmlns:sodipodi="http://sodipodi.sourceforge.net/DTD/sodipodi-0.dtd"
   xmlns:inkscape="http://www.inkscape.org/namespaces/inkscape"
   version="1.1"
   id="Layer_1"
   x="0px"
   y="0px"
   viewBox="0 0 358.4 497"
   style="enable-background:new 0 0 358.4 497;"
   xml:space="preserve"
   sodipodi:docname="chel2.svg"
   inkscape:version="0.92.1 r15371"><metadata
     id="metadata3789"><rdf:RDF><cc:Work
         rdf:about=""><dc:format>image/svg+xml</dc:format><dc:type
           rdf:resource="http://purl.org/dc/dcmitype/StillImage" /></cc:Work></rdf:RDF></metadata><defs
     id="defs3787"><inkscape:path-effect
       effect="spiro"
       id="path-effect4630"
       is_visible="true" /><inkscape:path-effect
       effect="spiro"
       id="path-effect4626"
       is_visible="true" /></defs><sodipodi:namedview
     pagecolor="#ffffff"
     bordercolor="#666666"
     borderopacity="1"
     objecttolerance="10"
     gridtolerance="10"
     guidetolerance="10"
     inkscape:pageopacity="0"
     inkscape:pageshadow="2"
     inkscape:window-width="1366"
     inkscape:window-height="705"
     id="namedview3785"
     showgrid="false"
     inkscape:zoom="1.5251881"
     inkscape:cx="248.17921"
     inkscape:cy="269.57625"
     inkscape:window-x="-8"
     inkscape:window-y="-8"
     inkscape:window-maximized="1"
     inkscape:current-layer="Layer_1" /><style
     type="text/css"
     id="style3680">
	.st0{fill:#E84434;}
	.st1{fill:none;stroke:#000000;stroke-width:3.4;stroke-linecap:round;stroke-linejoin:round;}
</style><title
     id="title3682">SVG</title><ellipse
     transform="matrix(0.7654 -0.6436 0.6436 0.7654 -109.92 92.5276)"
     class="st0"
     cx="71.9"
     cy="197"
     rx="16.7"
     ry="22"
     id="ellipse3684" /><path
     class="st1"
     d="M112.9,225.2c24.7,22,63.6-11.9,74.7-47.8"
     id="path3686" /><path
     class="st1"
     d="M186.1,203.2c-11.3,39.1-37.8,102.9-103,56.6"
     id="path3688" /><path
     class="st1"
     d="M183.6,288.7c-0.6-1,2.9-101.6,4.8-122.6c0,0,48.4,38,117.8,7.1c1.4,5-3.3,58.4-7.9,94.9"
     id="path3690" /><polygon
     class="st1"
     points="213.6,101.2 246.2,102.4 246.3,93.6 211.7,94.8 "
     id="polygon3692" /><polygon
     class="st1"
     points="289.5,108.5 258.9,106.1 259.6,97.9 291.9,102.7 "
     id="polygon3694" /><path
     class="st1"
     d="M183.6,288.7c0,0-0.4,27,8.8,34.7"
     id="path3696" /><path
     class="st1"
     d="M310.2,271.1l-14.8-3h-2.5c-3,0-5.5,2.5-5.5,5.5l0,0l0,0c0,3,2.5,5.5,5.5,5.5l0,0h1.7l-21.5,15.4  c0,0-8.1,12.4,0.7,8.1c8.5-4.2-5.3,8.1,3.9,5.1s-2.2,8.8,3.4,6.9s-0.7,6,2.9,6.8l39.6-17"
     id="path3698" /><path
     class="st1"
     d="M305.1,195c39,28.7,26.2,52.2,5,76c0,0,10.6,28.8,15.1,37c73.2-54.5-2.5-111.9-19.4-123.4"
     id="path3700" /><ellipse
     class="st1"
     cx="234.9"
     cy="118"
     rx="3.5"
     ry="5.7"
     id="ellipse3702" /><ellipse
     class="st1"
     cx="268.7"
     cy="121"
     rx="3.5"
     ry="5.7"
     id="ellipse3704" /><path
     class="st1"
     d="M314.4,57.4c5.1,4.6,6.6,12.3,6.7,18.9c0,6.1-0.8,12.2-2.4,18.1c-1.1,3.9-3.1,12.7-7.1,14.5  c-2.1-3.8-0.5-8.9-0.8-13.1s-3.6-20.3-5.6-24.2"
     id="path3706" /><path
     class="st1"
     d="M210.9,33.3c-3.2,5.1-4.2,12-1.9,17.6c2.4,6,8.7,7.4,14.1,9.8c5.7,2.5,11.1,5.7,16,9.6  c5.3,4.2,10.5,8.8,17.1,10.7c9.9,2.9,20.7,2.8,30.7,0.8c25.3-5,42.3-42.9,26.3-65.3c1.9,12.3-5.9,14.6-14.6,20.1  c8.8-10,2-29.3-10.4-34.9c15.6,34.6-24.5,27.8-44,25.3C233.4,25.6,217.9,22.3,210.9,33.3z"
     id="path3708" /><path
     class="st1"
     d="M219.9,59.4c-3.6-0.2-9.1,0.2-12.3,1.8c-11.1,5.4-14.1,20.2-15.9,31c-0.4,2.4-0.3,5.8-2.1,7.6  c-4.8-3.4-4.6-14.5-5.6-19.8c-2.1-11.1-2.5-26.5,5.3-35.6c2.1-2.3,4.9-3.7,8-4c3.4-0.3,8.1-1.5,11-0.1"
     id="path3710" /><polygon
     class="st1"
     points="236.6,196.4 223.6,252.6 244,277.2 265.6,255.4 256.1,196.9 "
     id="polygon3712" /><polyline
     class="st1"
     points="233.4,183.8 232.5,196.4 260.5,197 261.6,184.9 "
     id="polyline3714" /><path
     class="st1"
     d="M261,227.1l-26.4-22.3l-3.3,14.3l32.3,24L261,227.1z M228.6,231l-1.8,8l29.1,26.3l7.3-7.4L228.6,231z"
     id="path3716" /><path
     class="st1"
     d="M311.6,108.9c0,0-1.6,54.3-5.4,64.2"
     id="path3718" /><path
     class="st1"
     d="M189.5,99.8c0,0-2.2,46.4-1.1,66.3"
     id="path3720" /><line
     class="st1"
     x1="276.2"
     y1="301.5"
     x2="291.8"
     y2="293.7"
     id="line3722" /><line
     class="st1"
     x1="280"
     y1="308.1"
     x2="299.3"
     y2="298.2"
     id="line3724" /><line
     class="st1"
     x1="283.2"
     y1="314.3"
     x2="303.6"
     y2="303.6"
     id="line3726" /><ellipse
     class="st1"
     cx="245"
     cy="157.1"
     rx="17.4"
     ry="13.1"
     id="ellipse3728" /><ellipse
     class="st1"
     cx="248.9"
     cy="153.1"
     rx="10.6"
     ry="8"
     id="ellipse3730" /><path
     class="st1"
     d="M243.4,159c0,0,2.6-6.1,16.1-6.4"
     id="path3732" /><polyline
     class="st1"
     points="50.5,234.9 76.1,261.8 92.6,257 107.6,230.3 89.3,210.5 "
     id="polyline3734" /><polyline
     class="st1"
     points="59.8,178.7 38.9,156.2 13,171.2 1.7,181.7 14.9,196.4 "
     id="polyline3736" /><ellipse
     transform="matrix(0.7331 -0.6801 0.6801 0.7331 -112.4541 102.6304)"
     class="st1"
     cx="74.5"
     cy="194.6"
     rx="12.7"
     ry="21.7"
     id="ellipse3738" /><ellipse
     transform="matrix(0.7331 -0.6801 0.6801 0.7331 -108.1943 69.8003)"
     class="st1"
     cx="34.8"
     cy="172.8"
     rx="1.6"
     ry="2.7"
     id="ellipse3740" /><ellipse
     transform="matrix(0.7331 -0.6801 0.6801 0.7331 -134.7156 124.8439)"
     class="st1"
     cx="91.7"
     cy="234.1"
     rx="1.6"
     ry="2.7"
     id="ellipse3742" /><path
     class="st1"
     d="M59.8,178.7l-4.8,4.5c-5.1,4.8-2.7,15.7,5.5,24.5s18.9,12,24,7.3l4.8-4.5"
     id="path3744" /><line
     class="st1"
     x1="25.2"
     y1="188"
     x2="13"
     y2="171.2"
     id="line3746" /><line
     class="st1"
     x1="92.6"
     y1="257"
     x2="32.9"
     y2="195.5"
     id="line3748" /><path
     class="st1"
     d="M110.9,226.8c0,0-7.7-15.9-4.2-31.4s-7.5-26.9-11-16.6s-3.8,17-2.7,20.5s-0.4,14.8-0.4,14.8"
     id="path3750" /><line
     class="st1"
     x1="112.9"
     y1="226.8"
     x2="105.9"
     y2="232.1"
     id="line3752" /><path
     class="st1"
     d="M16.1,213.3l14.7-13.9c2.7-2.4,2.9-6.5,0.5-9.2c0,0,0,0,0,0l0,0c-2.4-2.7-6.5-2.9-9.2-0.5c0,0,0,0,0,0  l-10.7,9.9c0,0-13.6,10.5,7.9,29.9s49.9,25.1,49.9,25.1"
     id="path3754" /><path
     class="st1"
     d="M16.6,212.9l9.6-8.6c2.7-2.4,6.8-2.2,9.2,0.5c0,0,0,0,0,0l0,0c2.4,2.7,2.2,6.8-0.5,9.2c0,0,0,0,0,0l-5.6,5.6"
     id="path3756" /><path
     class="st1"
     d="M28.9,220l5.6-5.6c2.7-2.4,6.8-2.2,9.2,0.5c0,0,0,0,0,0l0,0c2.4,2.7,2.2,6.8-0.5,9.2c0,0,0,0,0,0l-3.6,4.6"
     id="path3758" /><path
     class="st1"
     d="M39.1,228.4l5.6-5.6c2.7-2.4,6.8-2.2,9.2,0.5c0,0,0,0,0,0l0,0c2.4,2.7,2.2,6.8-0.5,9.2c0,0,0,0,0,0l-4.1,3.6"
     id="path3760" /><polygon
     class="st1"
     points="293.4,202.4 267.7,202.4 267.7,226.9 280.6,235.7 293.2,226.9 "
     id="polygon3762" /><line
     class="st1"
     x1="267.7"
     y1="208.6"
     x2="293.4"
     y2="208.6"
     id="line3764" /><path
     class="st1"
     d="M225.3,360.1c-16.8-1.7-32.5-12.1-37.3-15.1"
     id="path3766" /><path
     class="st1"
     d="M292.2,314.6c2,8.8,1,23.8-5,30.5c-9.8,9-22.9,13.4-36.4,15"
     id="path3768" /><path
     class="st1"
     d="M234.1,382.4c0,0,27,0.9,27,24.9v88h36.4c0,0,0.7-7.3-5.8-7.3s-12.6,0.7-12.6-7.5s9.8-138.1,9.8-138.1"
     id="path3770" /><path
     class="st1"
     d="M234.4,382.4c0,0-27,0.9-27,24.9v88H171c0,0-0.7-7.3,5.8-7.3s12.6,0.7,12.6-7.5s-1.1-160.3-1.1-160.3"
     id="path3772" /><circle
     class="st1"
     cx="238.7"
     cy="345"
     r="19.8"
     id="circle3774" /><path
     class="st1"
     d="M232.6,342.6v-7.4h9.3c2,0,3.6,1.5,3.6,3.5c0,0.1,0,0.2,0,0.2c0,3.8-3.2,3.7-3.2,3.7L232.6,342.6L232.6,342.6z"
     id="path3776" /><path
     class="st1"
     d="M241.6,342.6c2.8,0.2,5,2.6,4.9,5.5c0.1,2.8-2,5.1-4.7,5.3c-0.1,0-0.1,0-0.2,0h-9V348h6.4"
     id="path3778" /><path
     class="st1"
     d="M220.1,338c-17.9-0.9-26.7-14.6-31.9-17.8"
     id="path3780" /><path
     class="st1"
     d="M288.9,322.2c-9.8,9-18.7,13.6-31.8,15.3"
     id="path3782" /><ellipse
     style="fill:none;stroke:#000000;stroke-width:3.94199991;stroke-miterlimit:4;stroke-dasharray:none;stroke-opacity:1"
     id="path3797"
     cx="230.88246"
     cy="118.68657"
     rx="17.319544"
     ry="17.319542" /><ellipse
     ry="17.319542"
     rx="17.319544"
     cy="120.54105"
     cx="272.60822"
     id="ellipse4604"
     style="fill:none;stroke:#000000;stroke-width:3.94199991;stroke-miterlimit:4;stroke-dasharray:none;stroke-opacity:1" /><path
     style="fill:none;stroke:#000000;stroke-width:5.692;stroke-linecap:butt;stroke-linejoin:miter;stroke-opacity:1;stroke-miterlimit:4;stroke-dasharray:none"
     d="m 248.5,118.68657 c 2.39537,0 4.79074,0 7.18611,0"
     id="path4610"
     inkscape:connector-curvature="0" /><path
     style="fill:none;stroke:#000000;stroke-width:0;stroke-linecap:butt;stroke-linejoin:miter;stroke-opacity:1;stroke-miterlimit:4;stroke-dasharray:none"
     d="m 289.99394,122.39552 c 0.42469,-0.7565 1.22463,-1.2898 2.08628,-1.39086 0.19783,-0.0232 0.39775,-0.025 0.59542,-0.0495 0.19767,-0.0246 0.39666,-0.0737 0.56363,-0.1823 0.13785,-0.0897 0.24762,-0.21562 0.35331,-0.34161 0.10569,-0.12598 0.21062,-0.25507 0.34212,-0.35382 0.1671,-0.12548 0.36858,-0.19561 0.5688,-0.25547 0.20021,-0.0598 0.40467,-0.11206 0.59025,-0.20814 0.34374,-0.17796 0.59747,-0.49274 0.92724,-0.69543 0.2948,-0.1812 0.64204,-0.26765 0.92724,-0.46362 0.27084,-0.1861 0.46791,-0.45831 0.69543,-0.69543 0.6775,-0.70609 1.6177,-1.09324 2.5499,-1.39086 0.39751,-0.12691 0.8045,-0.24358 1.15905,-0.46362 0.32851,-0.20388 0.60004,-0.48946 0.92724,-0.69543 0.29262,-0.1842 0.62251,-0.30022 0.92724,-0.46362 0.15248,-0.0818 0.29987,-0.17594 0.46362,-0.23181 0.22339,-0.0762 0.47204,-0.0762 0.69543,0 -0.0235,-0.009 -0.0442,-0.0247 -0.0585,-0.0453 -0.0143,-0.0206 -0.0222,-0.0456 -0.0222,-0.0706 0,-0.025 0.008,-0.05 0.0222,-0.0706 0.0143,-0.0206 0.035,-0.0366 0.0585,-0.0453 0.0365,-0.0135 0.0767,-0.01 0.11543,-0.006 0.0387,0.004 0.0775,0.006 0.11638,0.006 h 1.15905 c 0.0389,0 0.0777,0.002 0.1164,0.006 0.0387,0.004 0.079,0.008 0.11541,-0.006 0.0214,-0.008 0.0403,-0.0221 0.0554,-0.0394 0.0151,-0.0172 0.0264,-0.0375 0.0346,-0.0589 0.0164,-0.0427 0.0205,-0.089 0.0246,-0.13457 0.004,-0.0456 0.009,-0.0919 0.0255,-0.13437 0.008,-0.0212 0.0201,-0.0414 0.0355,-0.0583 0.0154,-0.0169 0.0346,-0.0306 0.0562,-0.0381 0.0369,-0.0128 0.0773,-0.007 0.11584,-8e-4 0.0385,0.006 0.0788,0.0126 0.11597,8e-4 0.0266,-0.008 0.0497,-0.0256 0.0687,-0.0459 0.0191,-0.0203 0.0344,-0.0438 0.0494,-0.0672 0.015,-0.0235 0.0298,-0.0472 0.048,-0.0683 0.0182,-0.0211 0.04,-0.0397 0.0657,-0.0504 0.0387,-0.016 0.083,-0.0128 0.12337,-0.002 0.0404,0.0113 0.0781,0.0301 0.11724,0.0451 0.0391,0.0151 0.0809,0.0265 0.12253,0.0221 0.0208,-0.002 0.0414,-0.008 0.0592,-0.0196 0.0178,-0.0111 0.0327,-0.027 0.0413,-0.0462 0.008,-0.0179 0.0103,-0.038 0.009,-0.0576 -9.2e-4,-0.0196 -0.005,-0.039 -0.009,-0.0582 -0.004,-0.0192 -0.008,-0.0386 -0.009,-0.0582 -0.001,-0.0196 9.3e-4,-0.0397 0.009,-0.0578 0.008,-0.0193 0.0229,-0.0356 0.0404,-0.0471 0.0176,-0.0115 0.038,-0.0183 0.0588,-0.021 0.0416,-0.005 0.0837,0.005 0.12309,0.0196 0.0394,0.0146 0.0772,0.0333 0.11746,0.0452 0.0402,0.0119 0.0841,0.0168 0.12386,0.003 0.0262,-0.009 0.0494,-0.0255 0.069,-0.0451 0.0196,-0.0196 0.036,-0.0421 0.0518,-0.0649 0.0315,-0.0456 0.0628,-0.0944 0.11096,-0.12184 0.0281,-0.016 0.0606,-0.0236 0.0929,-0.0243 0.0323,-7.7e-4 0.0646,0.005 0.0955,0.0146 0.0618,0.0191 0.11799,0.0525 0.17661,0.0797 0.0586,0.0273 0.12262,0.0489 0.18691,0.0419 0.0321,-0.004 0.0638,-0.0144 0.0898,-0.0336 0.026,-0.0192 0.0461,-0.047 0.0538,-0.0784 0.009,-0.0381 1.1e-4,-0.0779 -0.007,-0.11651 -0.003,-0.0193 -0.006,-0.0388 -0.006,-0.0584 2.9e-4,-0.0196 0.004,-0.0394 0.0128,-0.0569 0.009,-0.0185 0.0248,-0.0338 0.0426,-0.0444 0.0179,-0.0106 0.0383,-0.0167 0.0589,-0.019 0.0414,-0.005 0.0829,0.006 0.12206,0.02 0.0391,0.0141 0.077,0.0319 0.11716,0.0428 0.0401,0.0109 0.0837,0.0147 0.12282,5.9e-4 0.0261,-0.009 0.0489,-0.0263 0.0683,-0.0461 0.0194,-0.0198 0.0356,-0.0424 0.0513,-0.0653 0.0157,-0.0228 0.0311,-0.046 0.049,-0.0671 0.0179,-0.0211 0.0387,-0.0403 0.0631,-0.0533 0.0349,-0.0186 0.0757,-0.0238 0.11524,-0.0215 0.0395,0.002 0.0782,0.012 0.11658,0.0215 0.0384,0.01 0.0771,0.0191 0.11658,0.0215 0.0395,0.002 0.0803,-0.003 0.11522,-0.0216 0.0244,-0.0131 0.0452,-0.0323 0.0631,-0.0534 0.0179,-0.0211 0.0332,-0.0443 0.0489,-0.0672 0.0157,-0.0228 0.0319,-0.0455 0.0514,-0.0653 0.0194,-0.0198 0.0423,-0.0366 0.0684,-0.046 0.0393,-0.014 0.083,-0.01 0.12314,0.001 0.0402,0.0112 0.078,0.0293 0.11724,0.0436 0.0392,0.0143 0.0809,0.0248 0.12236,0.02 0.0207,-0.002 0.0411,-0.009 0.0589,-0.0196 0.0178,-0.0109 0.0329,-0.0265 0.042,-0.0453 0.009,-0.0176 0.0117,-0.0375 0.0115,-0.0572 -1.4e-4,-0.0196 -0.003,-0.0391 -0.007,-0.0583 -0.004,-0.0193 -0.008,-0.0385 -0.009,-0.058 -0.002,-0.0195 -9.2e-4,-0.0395 0.005,-0.0583 0.007,-0.0221 0.0203,-0.0419 0.0375,-0.0575 0.0171,-0.0156 0.0377,-0.027 0.0594,-0.0351 0.0434,-0.0161 0.0905,-0.0186 0.1367,-0.0211 0.0462,-0.003 0.0933,-0.006 0.13638,-0.0226 0.0215,-0.009 0.0418,-0.0206 0.0584,-0.0367 0.0166,-0.0161 0.0294,-0.0364 0.0352,-0.0589 0.005,-0.0191 0.005,-0.0392 0.002,-0.0588 -0.003,-0.0196 -0.007,-0.0387 -0.0113,-0.0581 -0.004,-0.0193 -0.007,-0.0389 -0.007,-0.0587 5.7e-4,-0.0197 0.005,-0.0397 0.0158,-0.0563 0.0115,-0.018 0.0297,-0.0313 0.0499,-0.0386 0.0201,-0.007 0.0421,-0.009 0.0633,-0.006 0.0425,0.005 0.0813,0.0259 0.11899,0.0462 0.0377,0.0202 0.0767,0.0407 0.11924,0.0454 0.0213,0.002 0.0432,5.1e-4 0.0632,-0.007 0.02,-0.008 0.0379,-0.0214 0.049,-0.0397 0.0102,-0.0169 0.0142,-0.037 0.0143,-0.0567 10e-5,-0.0197 -0.004,-0.0393 -0.008,-0.0585 -0.004,-0.0193 -0.009,-0.0385 -0.011,-0.0581 -0.002,-0.0196 -0.002,-0.0398 0.004,-0.0585 0.008,-0.0232 0.0236,-0.0434 0.044,-0.0566 0.0205,-0.0132 0.0452,-0.0195 0.0695,-0.0186 0.0243,9.3e-4 0.0483,0.009 0.0687,0.0223 0.0204,0.0133 0.0373,0.0318 0.0496,0.0529 0.0186,0.0321 0.0263,0.0703 0.0215,0.10707 -0.005,0.0367 -0.022,0.0717 -0.0482,0.0979 -0.0262,0.0262 -0.0612,0.0435 -0.0979,0.0482 -0.0367,0.005 -0.075,-0.003 -0.10707,-0.0215"
     id="path4628"
     inkscape:connector-curvature="0"
     inkscape:path-effect="#path-effect4630"
     inkscape:original-d="m 289.99394,122.39552 c 0.86974,-0.12332 1.3037,-1.09739 2.08628,-1.39086 0.36892,-0.13834 0.80665,-0.0556 1.15905,-0.23181 0.29322,-0.14661 0.41743,-0.52168 0.69543,-0.69543 0.35286,-0.22053 0.7953,-0.26153 1.15905,-0.46361 0.33773,-0.18763 0.59962,-0.49067 0.92724,-0.69543 0.29303,-0.18315 0.64604,-0.26277 0.92724,-0.46362 0.26676,-0.19055 0.43316,-0.49873 0.69543,-0.69543 0.54954,-0.41216 1.96861,-1.12663 2.5499,-1.39086 0.37882,-0.17219 0.79531,-0.26154 1.15905,-0.46362 0.33773,-0.18763 0.59962,-0.49066 0.92724,-0.69543 0.29304,-0.18315 0.61816,-0.30908 0.92724,-0.46362 0.15454,-0.0773 0.296,-0.1899 0.46362,-0.23181 0.008,-0.002 0.6942,10e-4 0.69543,0 0.0546,-0.0546 -0.0546,-0.17717 0,-0.23181 0.0546,-0.0546 0.15454,0 0.23181,0 0.38635,0 0.7727,0 1.15905,0 0.0773,0 0.17717,0.0546 0.23181,0 0.47962,-0.47962 -0.73293,0.0187 0.23181,-0.46362 0.0691,-0.0346 0.16269,0.0346 0.23181,0 0.0977,-0.0489 0.13407,-0.18294 0.23181,-0.23181 0.13822,-0.0691 0.35434,0.10928 0.46361,0 0.0546,-0.0546 -0.0691,-0.19725 0,-0.23181 0.13823,-0.0691 0.31701,0.0489 0.46362,0 0.10367,-0.0345 0.13407,-0.18294 0.23181,-0.23181 0.0919,-0.046 0.64804,0.0474 0.69543,0 0.0546,-0.0546 -0.0546,-0.17717 0,-0.23181 0.10928,-0.10927 0.3254,0.0691 0.46362,0 0.0977,-0.0489 0.13407,-0.18294 0.23181,-0.23181 0.13823,-0.0691 0.3254,0.0691 0.46362,0 0.0977,-0.0489 0.13407,-0.18294 0.23181,-0.23181 0.13823,-0.0691 0.35434,0.10928 0.46362,0 0.0546,-0.0546 -0.0346,-0.16269 0,-0.2318 0.48237,-0.96474 -0.016,0.24781 0.46362,-0.23181 0.0546,-0.0546 -0.0546,-0.17718 0,-0.23181 0.10928,-0.10928 0.35434,0.10927 0.46362,0 0.0546,-0.0546 -0.0546,-0.17718 0,-0.23181 0.0546,-0.0546 0.23181,-0.0773 0.23181,0 0,0.10927 -0.15454,0.15454 -0.23181,0.23181" /><path
     style="fill:none;stroke:#000000;stroke-width:4.4;stroke-linecap:butt;stroke-linejoin:miter;stroke-opacity:1;stroke-miterlimit:4;stroke-dasharray:none"
     d="m 213.26493,120.07742 c -24.34002,-9.96781 -24.34002,-9.96781 -24.34002,-9.96781"
     id="path4632"
     inkscape:connector-curvature="0" /><path
     style="fill:#333333;stroke:#000000;stroke-width:5;stroke-linecap:butt;stroke-linejoin:miter;stroke-opacity:1;stroke-miterlimit:4;stroke-dasharray:none"
     d="m 289.99394,122.39552 c 21.5583,-7.88153 21.79011,-7.88153 21.79011,-7.88153"
     id="path4634"
     inkscape:connector-curvature="0" /><path
     style="fill:#333333;stroke:#000000;stroke-width:1.15904856;stroke-miterlimit:4;stroke-dasharray:none;stroke-opacity:1"
     d="m 188.79725,95.949469 c -0.96707,-1.87012 -1.78368,-5.840816 -2.46409,-11.981462 -0.14127,-1.274953 -0.50547,-3.849932 -0.80932,-5.722176 -2.37811,-14.652905 -0.34308,-26.921371 5.45323,-32.87561 2.38001,-2.444851 5.48847,-3.391128 12.66195,-3.854542 l 2.34641,-0.15158 0.11377,3.452607 c 0.0951,2.88577 0.21279,3.757069 0.71685,5.307085 0.98188,3.019298 2.33687,5.02539 4.63844,6.867302 0.6697,0.535955 0.99647,0.932975 0.81133,0.985786 -0.17048,0.04863 -1.14244,0.27204 -2.15991,0.496462 -2.13876,0.471743 -4.97308,1.855557 -7.00856,3.42183 -5.09942,3.92391 -8.90745,10.880429 -11.29565,20.634907 -0.85427,3.489246 -1.77358,8.417594 -2.21341,11.865937 -0.14611,1.145574 -0.30298,2.120174 -0.34859,2.165782 -0.0456,0.04561 -0.24471,-0.229939 -0.44245,-0.612328 z"
     id="path4636"
     inkscape:connector-curvature="0" /><path
     style="fill:#333333;stroke:#000000;stroke-width:1.15904856;stroke-miterlimit:4;stroke-dasharray:none;stroke-opacity:1"
     d="m 268.62949,81.305661 c -3.47454,-0.232938 -7.13709,-0.812096 -10.3117,-1.630586 -5.33387,-1.375198 -8.44174,-3.143562 -15.87423,-9.032377 -8.1471,-6.455006 -12.75421,-9.18457 -21.86484,-12.954217 -4.60235,-1.904284 -6.10949,-2.750784 -7.72489,-4.338741 -4.12684,-4.056746 -4.38504,-12.230182 -0.59217,-18.745637 1.83226,-3.147491 5.16022,-5.498796 9.4302,-6.662734 1.65123,-0.450104 2.4388,-0.506078 7.1861,-0.510736 5.07925,-0.005 5.71018,0.04635 13.32906,1.084418 14.79083,2.01525 19.75713,2.481947 26.42772,2.483496 14.54028,0.0034 22.54349,-3.981336 24.47139,-12.184044 0.5413,-2.303073 0.34012,-6.843349 -0.44097,-9.9519344 -0.32023,-1.2744556 -0.5533,-2.3461223 -0.51794,-2.3814814 0.1457,-0.1456987 3.17372,3.2607977 4.06449,4.5725018 3.23021,4.756709 5.05225,11.403657 4.4227,16.134424 -0.44293,3.328446 -1.16467,5.236402 -2.81916,7.452533 -1.12115,1.501754 -1.21516,2.568964 -0.29036,3.296411 0.33594,0.264244 0.81952,0.480444 1.07465,0.480444 0.47626,0 5.87903,-3.117363 8.97781,-5.180138 2.7914,-1.858159 5.14049,-4.357958 6.2487,-6.649585 0.51557,-1.066137 0.9374,-2.126498 0.9374,-2.356359 0,-0.229861 0.0994,-0.417929 0.22093,-0.417929 0.36574,0 1.62436,4.293256 2.13502,7.282742 0.62872,3.680614 0.51361,10.036845 -0.25107,13.864223 -0.89497,4.479444 -2.8058,10.195832 -3.74566,11.205428 -0.24503,0.263208 -0.44722,0.732623 -0.44932,1.043144 -0.005,0.690999 -2.35878,4.801372 -4.40057,7.68359 -2.0577,2.904673 -6.09403,7.044824 -8.98267,9.213724 -2.74743,2.062872 -5.98647,3.820937 -8.95558,4.860847 -4.97431,1.742217 -14.80358,2.801256 -21.70504,2.338573 z"
     id="path4638"
     inkscape:connector-curvature="0" /><path
     style="fill:#333333;stroke:#000000;stroke-width:1.15904856;stroke-miterlimit:4;stroke-dasharray:none;stroke-opacity:1"
     d="m 312.37258,104.88883 c -0.069,-0.41436 -0.0136,-2.48996 0.12315,-4.61245 0.213,-3.307122 0.19271,-4.252027 -0.14181,-6.606574 -0.7877,-5.544097 -2.67221,-14.141057 -4.22657,-19.28116 l -0.79382,-2.625069 1.03896,-1.155576 c 1.67198,-1.859644 3.61793,-4.542117 5.18247,-7.143981 0.80152,-1.332953 1.49614,-2.462371 1.54358,-2.509817 0.16075,-0.160748 1.83813,3.043229 2.39182,4.568628 1.98666,5.473189 2.28588,13.311085 0.84132,22.038227 -0.45286,2.735934 -2.12994,9.350503 -3.115,12.285914 -0.65502,1.951898 -2.40033,5.795238 -2.63169,5.795238 -0.0479,0 -0.14344,-0.33902 -0.21241,-0.75338 z"
     id="path4640"
     inkscape:connector-curvature="0" /><path
     style="fill:#333333;stroke:#000000;stroke-width:1.15904856;stroke-miterlimit:4;stroke-dasharray:none;stroke-opacity:1"
     d="m 286.95996,106.49725 c -0.77448,-0.0684 -1.29125,-0.30993 -2.08629,-0.97517 -0.58125,-0.48634 -1.6827,-1.26146 -2.44767,-1.72248 -0.76497,-0.46102 -1.28654,-0.83693 -1.15905,-0.83535 0.52156,0.006 7.84347,1.15556 7.9329,1.24499 0.13722,0.13722 -0.88907,2.46847 -1.0651,2.41941 -0.0799,-0.0223 -0.60858,-0.0814 -1.17479,-0.1314 z"
     id="path4642"
     inkscape:connector-curvature="0" /><path
     style="fill:#333333;stroke:#000000;stroke-width:1.15904856;stroke-miterlimit:4;stroke-dasharray:none;stroke-opacity:1"
     d="m 261.06782,104.23617 c -0.12594,-0.32821 0.0677,-4.05512 0.21858,-4.20595 0.0287,-0.0287 1.89982,0.22123 4.15813,0.55533 2.2583,0.33411 4.07003,0.64344 4.02607,0.6874 -0.044,0.044 -0.74583,0.24209 -1.5597,0.44027 -0.81387,0.19819 -2.57507,0.89801 -3.91377,1.55515 -1.3387,0.65714 -2.51218,1.23041 -2.60774,1.27392 -0.0956,0.0435 -0.24026,-0.0942 -0.32157,-0.30612 z"
     id="path4644"
     inkscape:connector-curvature="0" /><path
     style="fill:#333333;stroke:#000000;stroke-width:1.15904856;stroke-miterlimit:4;stroke-dasharray:none;stroke-opacity:1"
     d="m 237.68673,100.25158 c -0.38249,-0.0491 -1.37347,-0.23636 -2.20219,-0.416176 -2.52203,-0.547229 -4.85354,-0.661683 -7.08252,-0.347684 -2.22532,0.313484 -2.85513,0.319597 -9.2669,0.08995 L 214.95571,99.427984 214.5458,98.0371 c -0.22545,-0.764985 -0.37885,-1.419339 -0.34088,-1.454118 0.073,-0.06685 27.64967,-1.047544 29.335,-1.043226 l 0.98519,0.0025 v 2.434002 2.434002 l -3.07147,-0.0347 c -1.68932,-0.0191 -3.38443,-0.0749 -3.76691,-0.12397 z"
     id="path4646"
     inkscape:connector-curvature="0" /><path
     style="fill:#aaaaff;stroke:#000000;stroke-width:1.15904856;stroke-miterlimit:4;stroke-dasharray:none;stroke-opacity:1"
     d="m 216.8324,335.82571 c -6.36839,-0.91936 -12.40585,-3.9011 -18.55332,-9.163 -6.61177,-5.65932 -9.05252,-9.66031 -10.85854,-17.79985 -2.34924,-10.58774 -2.48153,-19.25911 -0.95485,-62.58862 1.27954,-36.31548 3.12505,-76.07837 3.55249,-76.54101 0.0812,-0.0879 1.24286,0.51733 2.58156,1.34484 1.3387,0.82751 4.46813,2.52392 6.95429,3.76981 9.53009,4.7758 19.59616,8.15299 30.52146,10.24002 l 1.42935,0.27305 -0.10759,1.19067 c -0.53775,5.9514 -0.72024,10.04453 -0.47135,10.57218 0.35602,0.75478 1.1994,1.15821 2.43002,1.16241 0.84417,0.003 0.98176,0.0669 0.87912,0.40909 -0.19906,0.66357 -2.34205,9.75929 -3.59096,15.24149 -0.63898,2.80489 -2.89992,12.63634 -5.02429,21.84766 -2.23234,9.6795 -3.80505,16.96814 -3.72639,17.26982 0.11063,0.42428 12.1346,15.11917 19.537,23.8768 2.73523,3.23599 1.36726,4.09851 14.52224,-9.15648 6.10522,-6.15165 11.19258,-11.41946 11.30523,-11.70624 0.14473,-0.36846 -1.11668,-8.66436 -4.30018,-28.28078 -2.47775,-15.26765 -4.55882,-28.04623 -4.62461,-28.39684 l -0.1196,-0.63748 h 1.47529 c 2.49684,0 2.43222,0.1374 3.06172,-6.51033 0.29476,-3.11282 0.53937,-5.67137 0.54357,-5.68566 0.004,-0.0143 0.81608,-0.0982 1.80417,-0.18652 4.90445,-0.43828 12.33778,-1.79348 18.71863,-3.41266 4.40606,-1.11806 13.44005,-4.08016 17.50163,-5.7385 1.59369,-0.6507 2.97586,-1.18322 3.07148,-1.18339 0.29374,-4.8e-4 0.2091,7.36848 -0.0867,7.55132 -0.17417,0.10764 -0.212,0.63543 -0.11405,1.59146 0.15439,1.50686 -0.24503,8.40421 -0.51042,8.81429 -0.0853,0.13184 -0.17308,1.59579 -0.19501,3.25323 -0.0878,6.63343 -5.22185,58.99217 -6.69405,68.26795 l -0.12877,0.81134 -2.71308,0.008 c -2.26933,0.006 -2.89193,0.0891 -3.80658,0.50518 -1.5446,0.7026 -3.27577,2.40378 -3.90961,3.84189 -0.72052,1.63475 -0.74457,4.2272 -0.0534,5.75726 0.5859,1.29707 1.97023,2.87489 2.98857,3.40629 l 0.74775,0.3902 -9.0759,6.49752 -9.0759,6.49752 -1.08467,1.80219 c -4.13017,6.8623 -3.40169,11.13267 1.71511,10.05392 l 0.86224,-0.18179 -0.34067,0.96557 c -0.43557,1.23453 -0.43009,1.91644 0.0224,2.79153 0.37536,0.72587 1.53201,1.36108 2.47836,1.36108 0.29605,0 1.15152,-0.15973 1.90104,-0.35496 0.89858,-0.23404 1.44088,-0.27685 1.59208,-0.12565 0.1512,0.1512 -0.0282,0.88096 -0.5267,2.14244 -0.90833,2.29861 -0.87474,3.46689 0.1244,4.32631 0.5236,0.45038 0.83718,0.52833 1.8664,0.46398 1.06478,-0.0666 1.22007,-0.024 1.11507,0.30589 -0.61685,1.93781 -0.52056,4.04781 0.23752,5.20479 0.49316,0.75265 1.85604,1.33222 2.7244,1.15855 0.39809,-0.0796 0.60984,-0.0436 0.52747,0.0896 -0.27554,0.44582 -5.61749,4.3385 -7.57805,5.52212 -4.59636,2.7749 -9.60657,4.77778 -14.79292,5.91363 -4.64795,1.01794 -4.47147,1.01811 -4.95778,-0.005 -1.73045,-3.63999 -6.35638,-7.83531 -10.54327,-9.56184 -3.08226,-1.27102 -4.46546,-1.51752 -8.49125,-1.51319 -3.14546,0.003 -3.99071,0.0838 -5.56344,0.52912 -5.55194,1.57212 -10.32748,5.30899 -13.17882,10.31245 l -0.96576,1.69468 -2.07355,-0.29934 z m 71.23191,-103.09573 c 3.70366,-2.59247 6.64643,-4.81025 6.75111,-5.08788 0.27515,-0.72978 0.44241,-25.52377 0.17561,-26.03317 -0.53254,-1.0168 -0.30759,-1.0012 -14.43813,-1.0012 -12.93653,0 -13.51337,0.0182 -14.03814,0.44304 l -0.54725,0.44303 -0.0636,12.96933 c -0.0595,12.13417 -0.0371,13.00092 0.34771,13.46001 0.2262,0.26987 3.38423,2.52622 7.01785,5.0141 5.8633,4.01452 6.69785,4.51584 7.41791,4.45595 0.62231,-0.0518 2.34091,-1.13815 7.37688,-4.66321 z"
     id="path4670"
     inkscape:connector-curvature="0" /><path
     style="fill:#aaaaff;stroke:#000000;stroke-width:1.15904856;stroke-miterlimit:4;stroke-dasharray:none;stroke-opacity:1"
     d="m 269.56056,205.59164 v -1.27496 h 11.01096 11.01096 v 1.27496 1.27495 h -11.01096 -11.01096 z"
     id="path4672"
     inkscape:connector-curvature="0" /><path
     style="fill:#aaaaff;stroke:#000000;stroke-width:1.15904856;stroke-miterlimit:4;stroke-dasharray:none;stroke-opacity:1"
     d="m 242.78654,251.00504 c -7.13974,-6.44539 -13.20989,-11.94599 -13.48922,-12.22356 l -0.50788,-0.50467 0.47009,-2.02736 c 0.42804,-1.84598 0.50625,-2.00152 0.87419,-1.73857 1.73695,1.24127 30.15445,23.44521 30.15445,23.56109 0,0.082 -1.01706,1.16229 -2.26014,2.40056 l -2.26014,2.25139 z"
     id="path4674"
     inkscape:connector-curvature="0" /><path
     style="fill:#aaaaff;stroke:#000000;stroke-width:1.15904856;stroke-miterlimit:4;stroke-dasharray:none;stroke-opacity:1"
     d="m 247.30683,228.73353 c -7.45848,-5.54185 -13.64154,-10.1549 -13.74013,-10.25122 -0.16252,-0.15877 1.69136,-8.83756 2.10028,-9.83229 0.14355,-0.34922 2.11565,1.22086 11.8751,9.4543 l 11.70295,9.87307 0.86586,5.0338 c 0.47623,2.7686 0.84133,5.20585 0.81134,5.41612 -0.0385,0.26958 -4.05344,-2.58898 -13.6154,-9.69378 z"
     id="path4676"
     inkscape:connector-curvature="0" /><path
     style="fill:#aaaaff;stroke:#000000;stroke-width:1.15904856;stroke-miterlimit:4;stroke-dasharray:none;stroke-opacity:1"
     d="m 246.37959,194.84399 c -2.86864,-0.0877 -6.71788,-0.17291 -8.55385,-0.18936 l -3.33814,-0.0299 0.15428,-2.60786 c 0.0849,-1.43433 0.2179,-3.39285 0.29564,-4.35228 l 0.14136,-1.74442 2.13289,0.27046 c 4.86314,0.61665 9.19013,0.84984 15.60054,0.84073 4.96213,-0.007 6.77859,0.0618 6.77355,0.25677 -0.004,0.14652 -0.15716,1.77896 -0.34083,3.62764 -0.18367,1.84868 -0.33704,3.54379 -0.34083,3.76691 -0.006,0.37071 -0.32143,0.40201 -3.65789,0.36322 -2.00805,-0.0234 -5.99807,-0.1142 -8.86672,-0.2019 z"
     id="path4678"
     inkscape:connector-curvature="0" /><path
     style="fill:#aaaaff;stroke:#000000;stroke-width:1.15904856;stroke-miterlimit:4;stroke-dasharray:none;stroke-opacity:1"
     d="m 325.51419,304.56047 c -0.0842,-0.35062 -0.39057,-1.05474 -0.68074,-1.56472 -1.02386,-1.79948 -6.52538,-15.36389 -10.64346,-26.24224 l -2.03639,-5.37937 1.50845,-1.69082 c 2.9582,-3.31586 6.74808,-8.24421 9.45656,-12.29732 9.7399,-14.57528 11.45109,-26.98532 5.44164,-39.46441 -3.45568,-7.17598 -9.5124,-14.1849 -18.47414,-21.37851 -2.56425,-2.05834 -2.70268,-2.21272 -2.61396,-2.91519 0.0515,-0.40796 0.15816,-1.75881 0.23698,-3.00189 0.0788,-1.24308 0.18998,-2.26015 0.24703,-2.26015 0.49294,0 9.79616,7.48361 13.9934,11.25644 18.25025,16.40487 28.89831,32.75772 32.04868,49.21908 0.44689,2.3351 0.51444,3.44674 0.50873,8.37196 -0.006,5.30468 -0.0488,5.87814 -0.64652,8.69287 -1.76138,8.29451 -5.57328,16.05321 -11.62157,23.65442 -2.47438,3.10968 -9.50532,10.08332 -13.25442,13.14639 -1.67686,1.37001 -3.10919,2.49093 -3.18297,2.49093 -0.0738,0 -0.20307,-0.28686 -0.2873,-0.63747 z"
     id="path4680"
     inkscape:connector-curvature="0" /><path
     style="fill:#aaaaff;stroke:#000000;stroke-width:1.15904856;stroke-miterlimit:4;stroke-dasharray:none;stroke-opacity:1"
     d="m 118.88426,273.77591 c -9.43811,-1.32896 -18.88124,-5.19804 -30.125739,-12.34322 -0.985551,-0.62626 -1.381661,-0.99488 -1.159049,-1.07863 0.186004,-0.07 1.578266,-0.48353 3.093915,-0.919 1.515648,-0.43547 2.939228,-0.98311 3.16351,-1.21698 0.224281,-0.23387 3.591362,-6.11035 7.482403,-13.05885 l 7.07462,-12.63363 2.69816,-2.07604 c 2.53182,-1.94805 2.72952,-2.05587 3.20683,-1.74881 3.6819,2.36854 6.28845,3.5704 9.55548,4.40597 10.66712,2.72819 23.31718,-1.18444 35.69247,-11.03958 3.45826,-2.75401 9.90817,-9.26216 12.92304,-13.03974 4.32363,-5.41743 7.9799,-11.0541 11.1468,-17.1844 l 1.61665,-3.12943 -0.14783,2.31809 c -0.0813,1.27496 -0.21352,4.19576 -0.29382,6.49068 -0.14491,4.14157 -0.15449,4.20099 -1.28917,7.99743 -11.24616,37.62758 -26.82883,60.13251 -46.07048,66.5363 -4.45716,1.48339 -6.73076,1.86528 -11.72941,1.97016 -3.09066,0.0648 -5.13038,-0.01 -6.83838,-0.25032 z"
     id="path4682"
     inkscape:connector-curvature="0" /><path
     style="fill:#ff5555;stroke:#000000;stroke-width:3.27828431;stroke-miterlimit:4;stroke-dasharray:none;stroke-opacity:1"
     d="m 275.04323,229.54942 -5.06646,-3.39928 -0.0149,-7.70397 -0.0149,-7.70396 h 10.81834 10.81834 l -0.004,2.45871 c -0.002,1.35229 -0.18854,4.82964 -0.41418,7.72744 l -0.41024,5.26873 -4.995,3.42091 c -2.74724,1.88151 -5.14251,3.40062 -5.32281,3.37581 -0.18031,-0.0248 -2.60774,-1.57478 -5.3943,-3.44439 z"
     id="path4684"
     inkscape:connector-curvature="0" /><path
     style="fill:#ff5555;stroke:#000000;stroke-width:3.27828431;stroke-miterlimit:4;stroke-dasharray:none;stroke-opacity:1"
     d="m 247.49612,213.13834 -10.32124,-8.62487 0.35604,-2.62263 c 0.19582,-1.44245 0.56222,-2.8199 0.81422,-3.06102 0.252,-0.24111 3.98718,-0.24111 8.3004,0 l 7.84221,0.43839 1.78548,11.13477 c 0.98201,6.12413 1.73118,11.1855 1.66481,11.24751 -0.0664,0.062 -4.76523,-3.76847 -10.44192,-8.51215 z"
     id="path4686"
     inkscape:connector-curvature="0" /><path
     style="fill:#ff5555;stroke:#000000;stroke-width:3.27828431;stroke-miterlimit:4;stroke-dasharray:none;stroke-opacity:1"
     d="m 246.92284,242.6781 c -16.01723,-12.42372 -16.13596,-12.534 -15.63548,-14.52337 0.27736,-1.10252 0.68352,-2.80579 0.90258,-3.78504 0.39289,-1.75636 0.59561,-1.63398 14.97982,9.04316 l 14.58155,10.82362 0.81961,4.72563 c 0.45079,2.5991 0.74583,5.06519 0.65566,5.4802 -0.0902,0.41502 -7.42686,-4.87888 -16.30374,-11.7642 z"
     id="path4690"
     inkscape:connector-curvature="0" /><path
     style="fill:#ff5555;stroke:#000000;stroke-width:3.27828431;stroke-miterlimit:4;stroke-dasharray:none;stroke-opacity:1"
     d="m 235.19721,263.41772 c -9.60151,-11.76897 -9.58884,-11.74045 -7.91547,-17.81457 l 0.78221,-2.83933 3.07489,2.84725 c 1.69118,1.56598 7.29469,6.65633 12.45224,11.31189 l 9.37737,8.46465 -4.44236,4.47666 c -2.44329,2.46216 -4.45026,4.46006 -4.45993,4.43979 -0.01,-0.0203 -4.0007,-4.91912 -8.86895,-10.88634 z"
     id="path4692"
     inkscape:connector-curvature="0" /><path
     style="fill:#ff5555;stroke:#000000;stroke-width:3.27828431;stroke-miterlimit:4;stroke-dasharray:none;stroke-opacity:1"
     d="m 257.72918,355.47846 c 1.68593,-2.68727 2.59948,-6.6601 2.65549,-11.54827 l 0.0553,-4.82779 4.91742,-1.24581 c 8.29854,-2.10241 13.34307,-4.88642 24.14156,-13.3234 l 1.63417,-1.27679 -0.36704,5.21073 c -0.71626,10.1685 -4.31529,15.95315 -13.20253,21.22017 -3.7313,2.21136 -17.3401,7.25444 -19.59741,7.26232 -1.04279,0.004 -1.0672,-0.14787 -0.23699,-1.47116 z"
     id="path4694"
     inkscape:connector-curvature="0" /><path
     style="fill:#ff5555;stroke:#000000;stroke-width:3.27828431;stroke-miterlimit:4;stroke-dasharray:none;stroke-opacity:1"
     d="m 212.89442,355.25631 c -2.71033,-0.91002 -8.75876,-3.64395 -13.44096,-6.0754 l -8.51309,-4.4208 -0.18144,-9.63898 c -0.0998,-5.30144 0.001,-9.63898 0.2247,-9.63898 0.22338,0 2.12246,1.54899 4.22018,3.4422 6.15613,5.55596 12.83387,9.0254 20.42571,10.61223 1.69121,0.3535 1.73152,0.47216 1.4052,4.13701 -0.31331,3.51871 0.44085,6.87757 2.72414,12.13269 0.69364,1.59646 -0.83697,1.47383 -6.86444,-0.54997 z"
     id="path4696"
     inkscape:connector-curvature="0" /><path
     style="fill:#000000;stroke:#000000;stroke-width:3.27828431;stroke-miterlimit:4;stroke-dasharray:none;stroke-opacity:1"
     d="m 173.72576,491.80379 c 0.85048,-1.28563 1.69977,-1.51927 6.60832,-1.81788 6.027,-0.36666 8.42327,-1.46128 10.15316,-4.63798 0.69954,-1.2846 0.77696,-14.04815 0.41877,-69.04325 l -0.43942,-67.46732 2.20386,1.34832 c 7.97203,4.8773 20.99621,10.12926 27.29018,11.00468 1.70881,0.23768 5.31977,1.5092 8.02435,2.8256 4.5459,2.21263 5.36326,2.39346 10.81834,2.39346 5.50892,0 6.20579,-0.1585 10.49051,-2.38595 2.82288,-1.4675 6.99118,-2.89276 10.82846,-3.70256 8.17283,-1.72475 15.67293,-4.66452 21.25641,-8.33177 2.48219,-1.6303 4.62333,-2.85393 4.75809,-2.71917 0.13476,0.13476 -0.64546,12.16002 -1.73384,26.7228 -3.088,41.31871 -6.52459,89.91068 -6.9978,98.94616 -0.64186,12.2557 0.82704,14.31489 10.69993,14.99979 4.86531,0.33751 5.75081,0.58788 6.59611,1.86507 l 0.97639,1.47523 h -16.14357 -16.14356 l -0.013,-42.78161 c -0.007,-24.29969 -0.2896,-44.69444 -0.65329,-47.2094 -0.85272,-5.89675 -2.85207,-9.96434 -6.84846,-13.93293 -4.02984,-4.0018 -9.37494,-6.67506 -16.14606,-8.07518 -6.44946,-1.3336 -12.5035,-0.4651 -19.36924,2.77868 -6.16144,2.91103 -9.59568,6.12494 -12.2027,11.41984 l -2.13723,4.34075 -0.17668,46.72993 -0.17668,46.72992 h -16.45863 -16.45863 z"
     id="path4702"
     inkscape:connector-curvature="0" /></svg>