<?xml version="1.0" encoding="UTF-8" standalone="no"?>
<svg
   xmlns:dc="http://purl.org/dc/elements/1.1/"
   xmlns:cc="http://creativecommons.org/ns#"
   xmlns:rdf="http://www.w3.org/1999/02/22-rdf-syntax-ns#"
   xmlns:svg="http://www.w3.org/2000/svg"
   xmlns="http://www.w3.org/2000/svg"
   xmlns:sodipodi="http://sodipodi.sourceforge.net/DTD/sodipodi-0.dtd"
   xmlns:inkscape="http://www.inkscape.org/namespaces/inkscape"
   version="1.1"
   id="Layer_1"
   x="0px"
   y="0px"
   viewBox="0 0 313.4 504.1"
   style="enable-background:new 0 0 313.4 504.1;"
   xml:space="preserve"
   sodipodi:docname="human.svg"
   inkscape:version="0.92.1 r15371"><metadata
     id="metadata95"><rdf:RDF><cc:Work
         rdf:about=""><dc:format>image/svg+xml</dc:format><dc:type
           rdf:resource="http://purl.org/dc/dcmitype/StillImage" /></cc:Work></rdf:RDF></metadata><defs
     id="defs93" /><sodipodi:namedview
     pagecolor="#ffffff"
     bordercolor="#666666"
     borderopacity="1"
     objecttolerance="10"
     gridtolerance="10"
     guidetolerance="10"
     inkscape:pageopacity="0"
     inkscape:pageshadow="2"
     inkscape:window-width="1366"
     inkscape:window-height="705"
     id="namedview91"
     showgrid="false"
     inkscape:zoom="0.46816107"
     inkscape:cx="156.7"
     inkscape:cy="252.05"
     inkscape:window-x="-8"
     inkscape:window-y="-8"
     inkscape:window-maximized="1"
     inkscape:current-layer="Layer_1" /><style
     type="text/css"
     id="style2">
	.st0{fill:none;stroke:#000000;stroke-width:3.4;stroke-linecap:round;stroke-linejoin:round;}
</style><title
     id="title4">SVG</title><polygon
     class="st0"
     points="114.2,96.1 116.8,87.6 149.4,99.2 146.3,105.2 "
     id="polygon6"
     transform="matrix(-1,0,0,1,313.30822,0)"
     style="fill:none;stroke:#000000;stroke-width:3.4000001;stroke-linecap:round;stroke-linejoin:round" /><polygon
     class="st0"
     points="98.7,91.6 102.3,99.1 80.6,108.4 76.6,102.8 "
     id="polygon8"
     transform="matrix(-1,0,0,1,313.30822,0)"
     style="fill:none;stroke:#000000;stroke-width:3.4000001;stroke-linecap:round;stroke-linejoin:round" /><path
     class="st0"
     d="m 135.60822,57.4 c -4.3,3.9 -5.6,10.4 -5.7,16 0,5.2 0.7,10.3 2.1,15.3 0.9,3.3 2.6,10.7 6,12.3 1.8,-3.2 0.4,-7.5 0.7,-11 0.3,-3.5 3,-17.1 4.7,-20.4"
     id="path10"
     inkscape:connector-curvature="0"
     style="fill:none;stroke:#000000;stroke-width:3.4000001;stroke-linecap:round;stroke-linejoin:round" /><path
     class="st0"
     d="m 238.80822,33.3 c 3.2,5.1 4.2,12 1.9,17.6 -2.4,6 -8.7,7.4 -14.1,9.8 -5.7,2.5 -11.1,5.7 -16,9.6 -5.3,4.2 -10.5,8.8 -17.1,10.7 -9.8,2.9 -20.8,2.8 -30.8,0.8 -25.3,-5 -42.3,-42.9 -26.3,-65.3 -1.9,12.3 5.9,14.6 14.6,20.1 -8.8,-10 -2,-29.3 10.4,-34.9 -15.6,34.6 24.5,27.8 44,25.3 11,-1.4 26.5,-4.7 33.4,6.3 z"
     id="path12"
     inkscape:connector-curvature="0"
     style="fill:none;stroke:#000000;stroke-width:3.4000001;stroke-linecap:round;stroke-linejoin:round" /><path
     class="st0"
     d="m 229.90822,59.4 c 3.6,-0.2 9.1,0.2 12.3,1.8 11.1,5.3 14.1,20.1 16,31 0.4,2.4 0.1,10.3 1.9,12.1 4.8,-3.4 4.8,-19 5.8,-24.3 2.1,-11 2.5,-26.5 -5.3,-35.6 -2.1,-2.3 -4.9,-3.7 -8,-4 -3.3,-0.3 -8.1,-1.5 -11,-0.1"
     id="path14"
     inkscape:connector-curvature="0"
     style="fill:none;stroke:#000000;stroke-width:3.4000001;stroke-linecap:round;stroke-linejoin:round" /><path
     class="st0"
     d="m 198.10822,176.6 c -21.7,-2.2 -33,-11.4 -31.9,-37.5"
     id="path16"
     inkscape:connector-curvature="0"
     style="fill:none;stroke:#000000;stroke-width:3.4000001;stroke-linecap:round;stroke-linejoin:round" /><path
     class="st0"
     d="m 223.40822,169.4 c -5.8,-6.8 -10.8,-6.9 -23.1,-6.9 -16.1,-0.1 -21.1,3.4 -25.4,5.6"
     id="path18"
     inkscape:connector-curvature="0"
     style="fill:none;stroke:#000000;stroke-width:3.4000001;stroke-linecap:round;stroke-linejoin:round" /><ellipse
     class="st0"
     cx="-216.90822"
     cy="116.6"
     rx="3.0999999"
     ry="4.8000002"
     id="ellipse20"
     transform="scale(-1,1)"
     style="fill:none;stroke:#000000;stroke-width:3.4000001;stroke-linecap:round;stroke-linejoin:round" /><ellipse
     class="st0"
     cx="-187.40822"
     cy="114.5"
     rx="3.0999999"
     ry="4.8000002"
     id="ellipse22"
     transform="scale(-1,1)"
     style="fill:none;stroke:#000000;stroke-width:3.4000001;stroke-linecap:round;stroke-linejoin:round" /><path
     class="st0"
     d="m 166.20822,139.3 c 7.1,4.6 37.7,22.2 70.3,6.5"
     id="path24"
     inkscape:connector-curvature="0"
     style="fill:none;stroke:#000000;stroke-width:3.4000001;stroke-linecap:round;stroke-linejoin:round" /><path
     class="st0"
     d="m 174.90822,168 c 5.2,4.9 14.4,7.6 23.2,8.5 10.3,1.1 18.8,-1.9 25.3,-7.2 -19.4,7.2 -43.7,-2.1 -48.5,-1.3 z"
     id="path26"
     inkscape:connector-curvature="0"
     style="fill:none;stroke:#000000;stroke-width:3.4000001;stroke-linecap:round;stroke-linejoin:round" /><path
     class="st0"
     d="m 223.40822,169.4 c 0,0 6.7,-2.2 13.2,-23.7 -2.3,-6.5 -14.3,2.3 -34.5,0.6 -20.9,-1.8 -32.2,-11.4 -35.9,-7.2"
     id="path28"
     inkscape:connector-curvature="0"
     style="fill:none;stroke:#000000;stroke-width:3.4000001;stroke-linecap:round;stroke-linejoin:round" /><path
     class="st0"
     d="m 137.90822,100.9 c 0,0 1.8,62.3 5.6,72.3"
     id="path30"
     inkscape:connector-curvature="0"
     style="fill:none;stroke:#000000;stroke-width:3.4000001;stroke-linecap:round;stroke-linejoin:round" /><path
     class="st0"
     d="m 260.10822,104.3 c 0,0 2,54.4 1,74.3"
     id="path32"
     inkscape:connector-curvature="0"
     style="fill:none;stroke:#000000;stroke-width:3.4000001;stroke-linecap:round;stroke-linejoin:round" /><path
     class="st0"
     d="m 11.708222,219.2 c -8.7999995,-9.9 5,-8.1 5,-8.1 0,0 2.9,0.4 10.1,2 7.2,1.6 8.2,-1.3 8.2,-1.3 l 2.1,-14.3 -1.9,-7.9 c -0.4,-1.7 0.5,-3.4 2.2,-4 v 0 c 1.7,-0.6 3.7,0.3 4.3,2 l 2.1,5.3 3.6,16.7 2.7,10.1"
     id="path34"
     inkscape:connector-curvature="0"
     style="fill:none;stroke:#000000;stroke-width:3.4000001;stroke-linecap:round;stroke-linejoin:round" /><path
     class="st0"
     d="m 11.708222,219.2 c -8.3999995,-1.6 -11.29999952,6.3 -1.2,8.2"
     id="path36"
     inkscape:connector-curvature="0"
     style="fill:none;stroke:#000000;stroke-width:3.4000001;stroke-linecap:round;stroke-linejoin:round" /><path
     class="st0"
     d="m 10.508222,227.3 c -8.3999995,-1.6 -11.29999952,6.3 -1.1999995,8.2"
     id="path38"
     inkscape:connector-curvature="0"
     style="fill:none;stroke:#000000;stroke-width:3.4000001;stroke-linecap:round;stroke-linejoin:round" /><path
     class="st0"
     d="m 9.3082225,235.3 c -8.40000002,-1.6 -11.3,6.3 -1.2,8.2 0,0 21.7999995,5.6 34.5999995,4.3"
     id="path40"
     inkscape:connector-curvature="0"
     style="fill:none;stroke:#000000;stroke-width:3.4000001;stroke-linecap:round;stroke-linejoin:round" /><path
     class="st0"
     d="m 142.30822,324 c -0.6,-1 -0.9,-131.5 1,-152.5 0,0 48.3,38 117.8,7.1 1.4,5 -3.3,58.3 -7.9,94.9"
     id="path42"
     inkscape:connector-curvature="0"
     style="fill:none;stroke:#000000;stroke-width:3.4000001;stroke-linecap:round;stroke-linejoin:round" /><path
     class="st0"
     d="m 265.10822,276.5 -14.8,-3 h -2.6 c -3,0 -5.5,2.5 -5.5,5.5 0,0 0,0 0,0 v 0 c 0,3 2.5,5.5 5.5,5.5 v 0 h 1.7 l -21.5,15.3 c 0,0 -8.1,12.4 0.7,8.1 8.5,-4.2 -5.3,8.1 3.8,5.1 9.1,-3 -2.2,8.8 3.4,6.9 5.6,-1.9 -0.7,6 2.9,6.8 l 39.6,-16.9"
     id="path44"
     inkscape:connector-curvature="0"
     style="fill:none;stroke:#000000;stroke-width:3.4000001;stroke-linecap:round;stroke-linejoin:round" /><path
     class="st0"
     d="m 260.10822,200.4 c 39,28.7 26.2,52.2 5,76 0,0 10.6,28.8 15.1,37 73.3,-54.4 -2.4,-111.9 -19.4,-123.4"
     id="path46"
     inkscape:connector-curvature="0"
     style="fill:none;stroke:#000000;stroke-width:3.4000001;stroke-linecap:round;stroke-linejoin:round" /><polygon
     class="st0"
     points="134.7,258.1 114.3,282.6 92.8,260.8 102.3,202.3 121.8,201.8 "
     id="polygon48"
     transform="matrix(-1,0,0,1,313.30822,0)"
     style="fill:none;stroke:#000000;stroke-width:3.4000001;stroke-linecap:round;stroke-linejoin:round" /><polyline
     class="st0"
     points="125,189.2 125.9,201.8 97.9,202.4 96.8,190.3 "
     id="polyline50"
     transform="matrix(-1,0,0,1,313.30822,0)"
     style="fill:none;stroke:#000000;stroke-width:3.4000001;stroke-linecap:round;stroke-linejoin:round" /><path
     class="st0"
     d="m 218.50822,248.5 -32.3,-24 3.3,-14.3 26.4,22.3 z m -0.4,14.8 -7.3,7.4 -29.1,-26.3 1.8,-8 z"
     id="path52"
     inkscape:connector-curvature="0"
     style="fill:none;stroke:#000000;stroke-width:3.4000001;stroke-linecap:round;stroke-linejoin:round" /><line
     class="st0"
     x1="231.10823"
     y1="306.89999"
     x2="246.70822"
     y2="299.10001"
     id="line54"
     style="fill:none;stroke:#000000;stroke-width:3.4000001;stroke-linecap:round;stroke-linejoin:round" /><line
     class="st0"
     x1="234.90822"
     y1="313.5"
     x2="254.20822"
     y2="303.60001"
     id="line56"
     style="fill:none;stroke:#000000;stroke-width:3.4000001;stroke-linecap:round;stroke-linejoin:round" /><line
     class="st0"
     x1="238.20822"
     y1="319.70001"
     x2="258.60822"
     y2="309"
     id="line58"
     style="fill:none;stroke:#000000;stroke-width:3.4000001;stroke-linecap:round;stroke-linejoin:round" /><path
     class="st0"
     d="m 142.30822,193.1 c 0,0 -39.8,28.1 -90.999998,18.5 l -8.7,40.1 c 48.3,2.2 98.299998,-43.3 98.299998,-43.3"
     id="path60"
     inkscape:connector-curvature="0"
     style="fill:none;stroke:#000000;stroke-width:3.4000001;stroke-linecap:round;stroke-linejoin:round" /><line
     class="st0"
     x1="7.9082284"
     y1="226.8"
     x2="16.708216"
     y2="228.60001"
     id="line62"
     style="fill:none;stroke:#000000;stroke-width:3.4000001;stroke-linecap:round;stroke-linejoin:round" /><line
     class="st0"
     x1="10.008235"
     y1="218.8"
     x2="16.408228"
     y2="220.10001"
     id="line64"
     style="fill:none;stroke:#000000;stroke-width:3.4000001;stroke-linecap:round;stroke-linejoin:round" /><line
     class="st0"
     x1="7.4082284"
     y1="235.10001"
     x2="20.508234"
     y2="237.8"
     id="line66"
     style="fill:none;stroke:#000000;stroke-width:3.4000001;stroke-linecap:round;stroke-linejoin:round" /><polygon
     class="st0"
     points="135.5,205 138,229.4 151.7,236.8 163.4,226.8 161.1,202.3 "
     id="polygon68"
     transform="matrix(-1,0,0,1,313.30822,0)"
     style="fill:none;stroke:#000000;stroke-width:3.4000001;stroke-linecap:round;stroke-linejoin:round" /><line
     class="st0"
     x1="177.20822"
     y1="211.10001"
     x2="151.60823"
     y2="208.5"
     id="line70"
     style="fill:none;stroke:#000000;stroke-width:3.4000001;stroke-linecap:round;stroke-linejoin:round" /><path
     class="st0"
     d="m 208.10822,367.1 c 16.8,-1.6 32.5,-12 37.3,-15.1"
     id="path72"
     inkscape:connector-curvature="0"
     style="fill:none;stroke:#000000;stroke-width:3.4000001;stroke-linecap:round;stroke-linejoin:round" /><path
     class="st0"
     d="m 141.30822,321.6 c -2,8.8 -1,23.8 5,30.5 9.8,9 22.9,13.4 36.4,15"
     id="path74"
     inkscape:connector-curvature="0"
     style="fill:none;stroke:#000000;stroke-width:3.4000001;stroke-linecap:round;stroke-linejoin:round" /><path
     class="st0"
     d="m 199.30822,389.4 c 0,0 -27,0.9 -27,24.9 v 88 h -36.4 c 0,0 -0.7,-7.3 5.8,-7.3 6.5,0 12.6,0.7 12.6,-7.5 0,-8.2 -9.8,-138.1 -9.8,-138.1"
     id="path76"
     inkscape:connector-curvature="0"
     style="fill:none;stroke:#000000;stroke-width:3.4000001;stroke-linecap:round;stroke-linejoin:round" /><path
     class="st0"
     d="m 199.00822,389.4 c 0,0 27,0.9 27,24.9 v 88 h 36.4 c 0,0 0.7,-7.3 -5.8,-7.3 -6.5,0 -12.6,0.7 -12.6,-7.5 0,-8.2 1.1,-160.3 1.1,-160.3"
     id="path78"
     inkscape:connector-curvature="0"
     style="fill:none;stroke:#000000;stroke-width:3.4000001;stroke-linecap:round;stroke-linejoin:round" /><circle
     class="st0"
     cx="-194.70822"
     cy="352"
     r="19.799999"
     id="circle80"
     transform="scale(-1,1)"
     style="fill:none;stroke:#000000;stroke-width:3.4000001;stroke-linecap:round;stroke-linejoin:round" /><path
     class="st0"
     d="m 200.90822,349.7 v -7.4 h -9.3 c -2,0 -3.6,1.5 -3.6,3.5 0,0.1 0,0.2 0,0.2 0,3.8 3.2,3.7 3.2,3.7 h 9.7 z"
     id="path82"
     inkscape:connector-curvature="0"
     style="fill:none;stroke:#000000;stroke-width:3.4000001;stroke-linecap:round;stroke-linejoin:round" /><path
     class="st0"
     d="m 191.90822,349.7 c -2.8,0.2 -5,2.6 -4.9,5.5 -0.1,2.8 2,5.1 4.7,5.3 0.1,0 0.1,0 0.2,0 h 9 V 355 h -6.4"
     id="path84"
     inkscape:connector-curvature="0"
     style="fill:none;stroke:#000000;stroke-width:3.4000001;stroke-linecap:round;stroke-linejoin:round" /><path
     class="st0"
     d="m 213.30822,345.1 c 17.9,-0.9 26.7,-14.6 31.9,-17.8"
     id="path86"
     inkscape:connector-curvature="0"
     style="fill:none;stroke:#000000;stroke-width:3.4000001;stroke-linecap:round;stroke-linejoin:round" /><path
     class="st0"
     d="m 144.50822,329.2 c 9.8,9 18.8,13.6 31.8,15.3"
     id="path88"
     inkscape:connector-curvature="0"
     style="fill:none;stroke:#000000;stroke-width:3.4000001;stroke-linecap:round;stroke-linejoin:round" /></svg>