<?xml version="1.0" encoding="UTF-8" standalone="no"?>
<svg
   xmlns:dc="http://purl.org/dc/elements/1.1/"
   xmlns:cc="http://creativecommons.org/ns#"
   xmlns:rdf="http://www.w3.org/1999/02/22-rdf-syntax-ns#"
   xmlns:svg="http://www.w3.org/2000/svg"
   xmlns="http://www.w3.org/2000/svg"
   xmlns:sodipodi="http://sodipodi.sourceforge.net/DTD/sodipodi-0.dtd"
   xmlns:inkscape="http://www.inkscape.org/namespaces/inkscape"
   version="1.1"
   id="Layer_1"
   x="0px"
   y="0px"
   viewBox="0 0 313.4 504.1"
   style="enable-background:new 0 0 313.4 504.1;"
   xml:space="preserve"
   sodipodi:docname="human1.svg"
   inkscape:version="0.92.1 r15371"><metadata
     id="metadata95"><rdf:RDF><cc:Work
         rdf:about=""><dc:format>image/svg+xml</dc:format><dc:type
           rdf:resource="http://purl.org/dc/dcmitype/StillImage" /><dc:title>SVG</dc:title></cc:Work></rdf:RDF></metadata><defs
     id="defs93" /><sodipodi:namedview
     pagecolor="#ffffff"
     bordercolor="#666666"
     borderopacity="1"
     objecttolerance="10"
     gridtolerance="10"
     guidetolerance="10"
     inkscape:pageopacity="0"
     inkscape:pageshadow="2"
     inkscape:window-width="1366"
     inkscape:window-height="705"
     id="namedview91"
     showgrid="false"
     inkscape:zoom="0.93632215"
     inkscape:cx="-9.5474025"
     inkscape:cy="190.62836"
     inkscape:window-x="-8"
     inkscape:window-y="-8"
     inkscape:window-maximized="1"
     inkscape:current-layer="Layer_1" /><style
     type="text/css"
     id="style2">
	.st0{fill:none;stroke:#000000;stroke-width:3.4;stroke-linecap:round;stroke-linejoin:round;}
</style><title
     id="title4">SVG</title><polygon
     class="st0"
     points="146.3,105.2 114.2,96.1 116.8,87.6 149.4,99.2 "
     id="polygon6" /><polygon
     class="st0"
     points="76.6,102.8 98.7,91.6 102.3,99.1 80.6,108.4 "
     id="polygon8" /><path
     class="st0"
     d="M177.7,57.4c4.3,3.9,5.6,10.4,5.7,16c0,5.2-0.7,10.3-2.1,15.3c-0.9,3.3-2.6,10.7-6,12.3  c-1.8-3.2-0.4-7.5-0.7-11s-3-17.1-4.7-20.4"
     id="path10" /><path
     class="st0"
     d="M74.5,33.3c-3.2,5.1-4.2,12-1.9,17.6c2.4,6,8.7,7.4,14.1,9.8c5.7,2.5,11.1,5.7,16,9.6  c5.3,4.2,10.5,8.8,17.1,10.7c9.8,2.9,20.8,2.8,30.8,0.8c25.3-5,42.3-42.9,26.3-65.3c1.9,12.3-5.9,14.6-14.6,20.1  c8.8-10,2-29.3-10.4-34.9c15.6,34.6-24.5,27.8-44,25.3C96.9,25.6,81.4,22.3,74.5,33.3z"
     id="path12" /><path
     class="st0"
     d="M83.4,59.4c-3.6-0.2-9.1,0.2-12.3,1.8C60,66.5,57,81.3,55.1,92.2c-0.4,2.4-0.1,10.3-1.9,12.1  c-4.8-3.4-4.8-19-5.8-24.3c-2.1-11-2.5-26.5,5.3-35.6c2.1-2.3,4.9-3.7,8-4c3.3-0.3,8.1-1.5,11-0.1"
     id="path14" /><path
     class="st0"
     d="M115.2,176.6c21.7-2.2,33-11.4,31.9-37.5"
     id="path16" /><path
     class="st0"
     d="M89.9,169.4c5.8-6.8,10.8-6.9,23.1-6.9c16.1-0.1,21.1,3.4,25.4,5.6"
     id="path18" /><ellipse
     class="st0"
     cx="96.4"
     cy="116.6"
     rx="3.1"
     ry="4.8"
     id="ellipse20" /><ellipse
     class="st0"
     cx="125.9"
     cy="114.5"
     rx="3.1"
     ry="4.8"
     id="ellipse22" /><path
     class="st0"
     d="M147.1,139.3c-7.1,4.6-37.7,22.2-70.3,6.5"
     id="path24" /><path
     class="st0"
     d="M138.4,168c-5.2,4.9-14.4,7.6-23.2,8.5c-10.3,1.1-18.8-1.9-25.3-7.2C109.3,176.5,133.6,167.2,138.4,168z"
     id="path26" /><path
     class="st0"
     d="M89.9,169.4c0,0-6.7-2.2-13.2-23.7c2.3-6.5,14.3,2.3,34.5,0.6c20.9-1.8,32.2-11.4,35.9-7.2"
     id="path28" /><path
     class="st0"
     d="M175.4,100.9c0,0-1.8,62.3-5.6,72.3"
     id="path30" /><path
     class="st0"
     d="M53.2,104.3c0,0-2,54.4-1,74.3"
     id="path32" /><path
     class="st0"
     d="M301.6,219.2c8.8-9.9-5-8.1-5-8.1s-2.9,0.4-10.1,2s-8.2-1.3-8.2-1.3l-2.1-14.3l1.9-7.9c0.4-1.7-0.5-3.4-2.2-4  l0,0c-1.7-0.6-3.7,0.3-4.3,2l-2.1,5.3l-3.6,16.7l-2.7,10.1"
     id="path34" /><path
     class="st0"
     d="M301.6,219.2c8.4-1.6,11.3,6.3,1.2,8.2"
     id="path36" /><path
     class="st0"
     d="M302.8,227.3c8.4-1.6,11.3,6.3,1.2,8.2"
     id="path38" /><path
     class="st0"
     d="M304,235.3c8.4-1.6,11.3,6.3,1.2,8.2c0,0-21.8,5.6-34.6,4.3"
     id="path40" /><path
     class="st0"
     d="M171,324c0.6-1,0.9-131.5-1-152.5c0,0-48.3,38-117.8,7.1c-1.4,5,3.3,58.3,7.9,94.9"
     id="path42" /><path
     class="st0"
     d="M53.2,200.4c-39,28.7-26.2,52.2-5,76c0,0-10.6,28.8-15.1,37C-40.2,259,35.5,201.5,52.5,190"
     id="path46" /><line
     class="st0"
     x1="82.2"
     y1="306.9"
     x2="66.6"
     y2="299.1"
     id="line54" /><line
     class="st0"
     x1="78.4"
     y1="313.5"
     x2="59.1"
     y2="303.6"
     id="line56" /><line
     class="st0"
     x1="75.1"
     y1="319.7"
     x2="54.7"
     y2="309"
     id="line58" /><path
     class="st0"
     d="M171,193.1c0,0,39.8,28.1,91,18.5l8.7,40.1c-48.3,2.2-98.3-43.3-98.3-43.3"
     id="path60" /><line
     class="st0"
     x1="305.4"
     y1="226.8"
     x2="296.6"
     y2="228.6"
     id="line62" /><line
     class="st0"
     x1="303.3"
     y1="218.8"
     x2="296.9"
     y2="220.1"
     id="line64" /><line
     class="st0"
     x1="305.9"
     y1="235.1"
     x2="292.8"
     y2="237.8"
     id="line66" /><polygon
     class="st0"
     points="161.1,202.3 135.5,205 138,229.4 151.7,236.8 163.4,226.8 "
     id="polygon68" /><line
     class="st0"
     x1="136.1"
     y1="211.1"
     x2="161.7"
     y2="208.5"
     id="line70" /><path
     class="st0"
     d="M105.2,367.1c-16.8-1.6-32.5-12-37.3-15.1"
     id="path72" /><path
     class="st0"
     d="M172,321.6c2,8.8,1,23.8-5,30.5c-9.8,9-22.9,13.4-36.4,15"
     id="path74" /><path
     class="st0"
     d="M114,389.4c0,0,27,0.9,27,24.9v88h36.4c0,0,0.7-7.3-5.8-7.3s-12.6,0.7-12.6-7.5s9.8-138.1,9.8-138.1"
     id="path76" /><path
     class="st0"
     d="M114.3,389.4c0,0-27,0.9-27,24.9v88H50.9c0,0-0.7-7.3,5.8-7.3s12.6,0.7,12.6-7.5s-1.1-160.3-1.1-160.3"
     id="path78" /><circle
     class="st0"
     cx="118.6"
     cy="352"
     r="19.8"
     id="circle80" /><path
     class="st0"
     d="M100,345.1c-17.9-0.9-26.7-14.6-31.9-17.8"
     id="path86" /><path
     class="st0"
     d="M168.8,329.2c-9.8,9-18.8,13.6-31.8,15.3"
     id="path88" /><rect
     style="fill:#ffffff;fill-opacity:1;stroke:#000000;stroke-width:1.79999995;stroke-miterlimit:4;stroke-dasharray:none;stroke-opacity:1"
     id="rect4572"
     width="67.818542"
     height="107.33485"
     x="173.65659"
     y="157.76262"
     transform="rotate(23.619444)" /><path
     class="st0"
     d="M48.2,276.5l14.8-3h2.6c3,0,5.5,2.5,5.5,5.5c0,0,0,0,0,0l0,0c0,3-2.5,5.5-5.5,5.5l0,0h-1.7l21.5,15.3  c0,0,8.1,12.4-0.7,8.1c-8.5-4.2,5.3,8.1-3.8,5.1s2.2,8.8-3.4,6.9s0.7,6-2.9,6.8l-39.6-16.9"
     id="path44"
     style="fill:#ffffff;fill-opacity:1" /><text
     xml:space="preserve"
     style="font-style:normal;font-weight:normal;font-size:6.45376396px;line-height:1.25;font-family:sans-serif;letter-spacing:0px;word-spacing:0px;fill:#007a00;fill-opacity:1;stroke:none;stroke-width:0.1613441"
     x="174.59406"
     y="228.32973"
     id="text4576"
     transform="matrix(1.124895,0.45425357,-0.35004261,0.74761812,0,0)"><tspan
       sodipodi:role="line"
       x="174.48697"
       y="228.32973"
       id="tspan4580"
       style="font-style:normal;font-variant:normal;font-weight:bold;font-stretch:normal;font-size:16.798769px;line-height:0;font-family:sans-serif;-inkscape-font-specification:'sans-serif Bold';text-align:center;letter-spacing:-0.21418431px;text-anchor:middle;fill:#007a00;fill-opacity:1;stroke-width:0.1613441">Score</tspan><tspan
       sodipodi:role="line"
       x="174.59406"
       y="236.39693"
       style="font-style:normal;font-variant:normal;font-weight:bold;font-stretch:normal;font-size:16.798769px;line-height:0;font-family:sans-serif;-inkscape-font-specification:'sans-serif Bold';text-align:center;letter-spacing:-0.21418431px;text-anchor:middle;fill:#007a00;fill-opacity:1;stroke-width:0.1613441"
       id="tspan5168" /><tspan
       sodipodi:role="line"
       x="174.48697"
       y="244.46414"
       id="tspan4582"
       style="font-style:normal;font-variant:normal;font-weight:bold;font-stretch:normal;font-size:16.798769px;line-height:0;font-family:sans-serif;-inkscape-font-specification:'sans-serif Bold';text-align:center;letter-spacing:-0.21418431px;text-anchor:middle;fill:#007a00;fill-opacity:1;stroke-width:0.1613441">263</tspan></text>
<path
     style="fill:#0055d4;fill-opacity:1;stroke:none;stroke-width:8.54406834;stroke-linecap:round;stroke-linejoin:round;stroke-miterlimit:4;stroke-dasharray:none;stroke-dashoffset:0;stroke-opacity:1;paint-order:normal"
     d="m 135.60077,338.38519 c -3.03495,-3.80367 -9.91606,-8.00747 -13.10724,-8.00747 -0.97567,0 -1.52454,-0.59444 -1.23267,-1.33501 0.28939,-0.73426 8.99168,-20.68857 19.33842,-44.34292 10.34674,-23.65435 18.81226,-43.42715 18.81226,-43.93957 0,-0.51241 -1.31568,-1.26187 -2.92373,-1.66547 l -2.92374,-0.73381 6.09827,-5.52302 6.09828,-5.52302 -1.17826,-12.8161 c -0.64805,-7.04886 -1.52175,-13.19842 -1.94154,-13.66571 -0.85978,-0.95704 -27.34719,1.64933 -28.50252,2.80466 -0.40918,0.40918 -0.21876,6.38454 0.42316,13.27857 0.64191,6.89403 1.08681,12.61688 0.98867,12.71744 -0.0982,0.10056 -8.82715,-3.61334 -19.39777,-8.2531 -10.57062,-4.63976 -19.699921,-8.44585 -20.287325,-8.45798 -0.587405,-0.0121 -6.824895,13.1937 -13.861089,29.34627 l -12.793079,29.3683 h -3.445655 c -3.059685,0 -3.508845,-0.38881 -4.009765,-3.47102 -1.6231,-9.9871 -5.700425,-52.31169 -6.457348,-67.03037 -0.347028,-6.7481 -0.884603,-13.88169 -1.194612,-15.85244 -0.423471,-2.69202 -0.214363,-3.4401 0.84079,-3.00792 0.772444,0.31639 5.862738,2.0512 11.311764,3.85513 15.641611,5.17826 27.240985,6.78677 44.561109,6.17941 18.3904,-0.64489 31.53876,-3.80215 46.7053,-11.21516 5.73823,-2.8047 10.51605,-5.08707 10.61735,-5.07192 0.10124,0.0151 0.46175,34.03052 0.801,75.58972 0.4549,55.72633 0.30069,75.56204 -0.58742,75.5616 -0.66233,-3.2e-4 -1.78836,0.70324 -2.50228,1.56347 -3.64396,4.3907 -21.40712,13.38822 -26.43103,13.38803 -0.45908,-2e-5 -2.17777,-1.68329 -3.8193,-3.74059 z"
     id="path8413"
     inkscape:connector-curvature="0" /><path
     style="fill:#786721;fill-opacity:1;stroke:none;stroke-width:8.54406834;stroke-linecap:round;stroke-linejoin:round;stroke-miterlimit:4;stroke-dasharray:none;stroke-dashoffset:0;stroke-opacity:1;paint-order:normal"
     d=""
     id="path8419"
     inkscape:connector-curvature="0" /><path
     style="fill:#24221c;fill-opacity:1;stroke:none;stroke-width:8.54406834;stroke-linecap:round;stroke-linejoin:round;stroke-miterlimit:4;stroke-dasharray:none;stroke-dashoffset:0;stroke-opacity:1;paint-order:normal"
     d="m 53.93895,498.85606 c 0.241039,-0.73426 2.083354,-1.4599 4.094033,-1.61255 8.967187,-0.68079 10.717151,-1.36301 12.13287,-4.73001 1.096843,-2.60862 1.267357,-16.82511 0.833572,-69.49864 -0.320096,-38.86848 -0.149908,-66.05061 0.412043,-65.81105 0.526559,0.22447 4.589227,2.19928 9.028152,4.38846 4.438924,2.18918 11.407679,4.78196 15.486123,5.76173 4.078447,0.97977 9.337767,2.78371 11.687387,4.00875 5.87079,3.0609 15.57322,3.03635 21.36017,-0.054 2.34962,-1.25477 7.63475,-3.05781 11.74473,-4.00676 7.83052,-1.80797 19.99978,-7.00603 23.21591,-9.91658 2.42839,-2.19767 2.59942,-7.01509 -1.8884,53.192 -2.07573,27.84727 -4.06914,57.62957 -4.4298,66.1829 l -0.65575,15.55151 2.97182,2.33763 c 2.10844,1.65851 4.44337,2.33763 8.03705,2.33763 3.19952,0 5.55497,0.59009 6.3948,1.60202 1.17185,1.412 -0.58608,1.60201 -14.82135,1.60201 h -16.1509 l -0.006,-44.58935 c -0.004,-26.57551 -0.43953,-46.15026 -1.07918,-48.45302 -2.59062,-9.32643 -10.14436,-15.90636 -21.4277,-18.66532 -6.41771,-1.56923 -7.5959,-1.57232 -13.59391,-0.0357 -12.900889,3.30506 -19.707819,10.11325 -21.587495,21.59148 -0.568621,3.47229 -1.036641,25.17695 -1.040043,48.23259 l -0.0062,41.91933 h -15.57506 c -11.981828,0 -15.474016,-0.30799 -15.136872,-1.33501 z"
     id="path8421"
     inkscape:connector-curvature="0" /><path
     style="fill:#784421;fill-opacity:1;stroke:none;stroke-width:8.54406834;stroke-linecap:round;stroke-linejoin:round;stroke-miterlimit:4;stroke-dasharray:none;stroke-dashoffset:0;stroke-opacity:1;paint-order:normal"
     d=""
     id="path8423"
     inkscape:connector-curvature="0" /><path
     style="fill:#784421;fill-opacity:1;stroke:none;stroke-width:8.54406834;stroke-linecap:round;stroke-linejoin:round;stroke-miterlimit:4;stroke-dasharray:none;stroke-dashoffset:0;stroke-opacity:1;paint-order:normal"
     d="m 138.62775,361.61697 c 0.44269,-1.02796 1.02955,-4.85463 1.30412,-8.50371 l 0.49921,-6.63469 5.98706,-1.74048 c 7.83243,-2.27695 12.44797,-4.69257 19.27072,-10.08564 l 5.59535,-4.42288 -0.66827,4.07911 c -2.2215,13.55995 -3.22591,15.39276 -11.29276,20.60661 -5.49746,3.55318 -17.5136,8.57069 -20.52544,8.57069 -0.5362,0 -0.61269,-0.84105 -0.16999,-1.86901 z"
     id="path8425"
     inkscape:connector-curvature="0" /><path
     style="fill:#784421;fill-opacity:1;stroke:none;stroke-width:8.54406834;stroke-linecap:round;stroke-linejoin:round;stroke-miterlimit:4;stroke-dasharray:none;stroke-dashoffset:0;stroke-opacity:1;paint-order:normal"
     d="m 91.870584,361.86829 c -2.196949,-0.80696 -7.844044,-3.46997 -12.5491,-5.91781 l -8.554649,-4.45061 v -9.58383 -9.58384 l 5.073041,4.4724 c 5.869474,5.17453 11.377829,8.20432 17.06379,9.38568 3.792528,0.78797 3.996636,1.03754 3.701462,4.5258 -0.17182,2.03051 0.411106,5.7344 1.295392,8.23087 1.486497,4.1966 1.470364,4.53336 -0.213846,4.46378 -1.001902,-0.0414 -3.619142,-0.73549 -5.81609,-1.54244 z"
     id="path8427"
     inkscape:connector-curvature="0" /><path
     style="fill:#241f1c;fill-opacity:1;stroke:none;stroke-width:8.54406834;stroke-linecap:round;stroke-linejoin:round;stroke-miterlimit:4;stroke-dasharray:none;stroke-dashoffset:0;stroke-opacity:1;paint-order:normal"
     d="m 124.44403,79.707012 c -7.89865,-1.715987 -6.983,-1.234308 -18.56182,-9.764544 C 100.81838,66.211885 92.554408,61.228502 87.517836,58.868286 76.676592,53.787907 73.970861,50.874496 73.970861,44.281501 c 0,-5.358081 1.749278,-9.313531 5.787198,-13.085947 3.818572,-3.56749 11.374975,-3.97233 30.983331,-1.659949 25.95266,3.060554 39.60624,1.292587 44.2111,-5.724782 0.98396,-1.499473 2.02933,-5.632917 2.32303,-9.185429 l 0.53401,-6.4591137 2.93702,5.8167417 c 3.34873,6.632132 3.98347,15.353659 1.36898,18.810327 -1.95785,2.588508 -2.09264,5.811173 -0.24307,5.811173 2.31428,0 11.76724,-6.345657 14.79322,-9.930505 l 2.83603,-3.359813 0.77446,5.164488 c 0.42596,2.840468 0.469,8.087044 0.0957,11.659058 -0.60229,5.762439 -1.68011,8.948823 -6.37134,18.835818 -1.98704,4.187673 -11.53521,13.487298 -16.32903,15.903921 -4.75657,2.39785 -15.40598,4.47822 -22.29015,4.354398 -2.34962,-0.04226 -7.27141,-0.728456 -10.93732,-1.524875 z"
     id="path8431"
     inkscape:connector-curvature="0" /><path
     style="fill:#241f1c;fill-opacity:1;stroke:none;stroke-width:8.54406834;stroke-linecap:round;stroke-linejoin:round;stroke-miterlimit:4;stroke-dasharray:none;stroke-dashoffset:0;stroke-opacity:1;paint-order:normal"
     d="M 51.618513,96.641965 C 51.576806,95.961599 50.769355,89.473448 49.824176,82.22385 47.8302,66.929886 48.252082,58.076823 51.303613,51.178332 53.939395,45.21971 56.76988,43.229115 63.944556,42.288339 l 5.459819,-0.715916 0.527803,5.492957 c 0.351329,3.656352 1.314235,6.330075 2.879879,7.996626 l 2.352075,2.503668 -2.795778,0.701696 c -4.282092,1.074737 -11.785339,8.631231 -14.242891,14.343966 -1.211781,2.816859 -3.154511,9.654433 -4.317178,15.19461 -1.162668,5.540175 -2.148065,9.516384 -2.189772,8.836019 z"
     id="path8433"
     inkscape:connector-curvature="0" /><path
     style="fill:#0066ff;fill-opacity:1;stroke:none;stroke-width:8.54406834;stroke-linecap:round;stroke-linejoin:round;stroke-miterlimit:4;stroke-dasharray:none;stroke-dashoffset:0;stroke-opacity:1;paint-order:normal"
     d="m 257.13603,248.81781 c -21.42036,-2.43985 -53.29154,-17.7245 -76.89833,-36.87858 -5.82924,-4.72974 -6.4382,-5.61597 -6.74189,-9.81169 -0.18362,-2.53677 0.0567,-4.41851 0.534,-4.18164 17.00574,8.43934 28.09417,12.5287 41.29034,15.22767 10.89629,2.22859 29.33699,3.15351 37.90543,1.90119 4.77675,-0.69814 6.8685,-0.6446 7.10116,0.18176 0.29624,1.05218 1.34721,5.71321 6.3447,28.13863 1.09334,4.90619 1.15885,6.63803 0.24723,6.53536 -0.68215,-0.0768 -5.08435,-0.57754 -9.78264,-1.1127 z"
     id="path8437"
     inkscape:connector-curvature="0" /><path
     style="fill:#0066ff;fill-opacity:1;stroke:none;stroke-width:8.54406834;stroke-linecap:round;stroke-linejoin:round;stroke-miterlimit:4;stroke-dasharray:none;stroke-dashoffset:0;stroke-opacity:1;paint-order:normal"
     d="M 24.079369,302.63056 C 0.36554157,279.96479 -2.2869981,255.86321 15.918422,228.47835 c 5.538665,-8.33134 21.570874,-24.90006 29.551013,-30.53992 4.667914,-3.29899 5.005239,-3.38656 5.005239,-1.29936 0,1.39259 -3.368328,5.55305 -8.916548,11.01345 -20.375296,20.05279 -20.852314,37.1681 -1.731207,62.11546 2.919242,3.80874 5.307713,7.35456 5.307713,7.8796 0,1.62141 -11.867104,31.11057 -12.735601,31.64734 -0.449971,0.27809 -4.193819,-2.72086 -8.319662,-6.66436 z"
     id="path8439"
     inkscape:connector-curvature="0" /><path
     style="fill:#0066ff;fill-opacity:1;stroke:none;stroke-width:8.54406834;stroke-linecap:round;stroke-linejoin:round;stroke-miterlimit:4;stroke-dasharray:none;stroke-dashoffset:0;stroke-opacity:1;paint-order:normal"
     d="m 134.06971,336.61759 c -3.07101,-2.85931 -7.03599,-5.51774 -8.81107,-5.90761 -1.77507,-0.38988 -3.2274,-1.07351 -3.2274,-1.5192 0,-0.44569 3.66138,-9.17853 8.1364,-19.4063 18.95305,-43.31772 29.2439,-67.54747 29.2439,-68.8546 0,-0.7677 -1.07362,-1.73658 -2.38582,-2.15305 -2.23312,-0.70876 -2.01431,-1.08998 3.4185,-5.95594 l 5.80433,-5.19871 -1.3039,-13.04119 c -0.71715,-7.17266 -1.69965,-13.43695 -2.18334,-13.92064 -0.84498,-0.84498 -23.10279,0.84004 -27.26638,2.06419 -1.89125,0.55605 -1.97596,1.41715 -1.30583,13.27472 l 0.71661,12.68009 -2.68519,-1.0209 c -1.47685,-0.5615 -9.29979,-3.85492 -17.38431,-7.31872 -20.601817,-8.82679 -18.973761,-8.59023 -21.794585,-3.1668 -1.314482,2.52728 -7.267914,15.64893 -13.229847,29.15924 -10.524964,23.85057 -10.929298,24.5642 -13.917884,24.5642 -2.783694,0 -3.151499,-0.43051 -3.846613,-4.50234 -2.06511,-12.09697 -8.025716,-82.17121 -7.070816,-83.12611 0.242711,-0.24271 4.602134,0.97392 9.687609,2.70362 16.696687,5.67897 24.570137,6.74388 45.510126,6.15538 21.42008,-0.602 30.35862,-2.6077 47.36893,-10.62905 5.14013,-2.42387 9.54503,-4.20706 9.78869,-3.96264 0.24365,0.24442 0.60384,33.7588 0.8004,74.4764 l 0.35739,74.03201 -3.73803,3.14494 c -3.65041,3.07123 -18.7089,10.99436 -22.96218,12.08171 -1.51858,0.38823 -3.75004,-0.95668 -7.71969,-4.6527 z"
     id="path8441"
     inkscape:connector-curvature="0" /><path
     style="fill:#241f1c;fill-opacity:1;stroke:none;stroke-width:8.54406834;stroke-linecap:round;stroke-linejoin:round;stroke-miterlimit:4;stroke-dasharray:none;stroke-dashoffset:0;stroke-opacity:1;paint-order:normal"
     d=""
     id="path8443"
     inkscape:connector-curvature="0" /><path
     style="fill:#241f1c;fill-opacity:1;stroke:none;stroke-width:8.54406834;stroke-linecap:round;stroke-linejoin:round;stroke-miterlimit:4;stroke-dasharray:none;stroke-dashoffset:0;stroke-opacity:1;paint-order:normal"
     d="m 176.60527,91.234294 c -0.0581,-2.479775 -0.89147,-8.085172 -1.85198,-12.456437 -1.72404,-7.846017 -1.71608,-7.99679 0.62111,-11.778447 1.30212,-2.106881 2.78712,-3.830693 3.3,-3.830693 2.79187,0 2.53853,18.992882 -0.37039,27.768221 l -1.59315,4.806038 z"
     id="path8445"
     inkscape:connector-curvature="0" /><path
     style="fill:#241f1c;fill-opacity:1;stroke:none;stroke-width:8.54406834;stroke-linecap:round;stroke-linejoin:round;stroke-miterlimit:4;stroke-dasharray:none;stroke-dashoffset:0;stroke-opacity:1;paint-order:normal"
     d=""
     id="path8447"
     inkscape:connector-curvature="0" /><path
     style="fill:#241f1c;fill-opacity:1;stroke:none;stroke-width:8.54406834;stroke-linecap:round;stroke-linejoin:round;stroke-miterlimit:4;stroke-dasharray:none;stroke-dashoffset:0;stroke-opacity:1;paint-order:normal"
     d="m 80.378912,104.36751 c 0,-1.39647 17.448579,-10.14468 17.847414,-8.948177 0.782302,2.346908 -0.07303,3.049094 -7.814676,6.415457 -8.893851,3.86739 -10.032738,4.1549 -10.032738,2.53272 z"
     id="path8449"
     inkscape:connector-curvature="0" /><path
     style="fill:#241f1c;fill-opacity:1;stroke:none;stroke-width:8.54406834;stroke-linecap:round;stroke-linejoin:round;stroke-miterlimit:4;stroke-dasharray:none;stroke-dashoffset:0;stroke-opacity:1;paint-order:normal"
     d="m 129.90319,98.292852 c -11.47868,-3.340894 -12.89209,-4.007947 -12.40874,-5.856268 0.30001,-1.147252 1.08307,-1.889676 1.74013,-1.649829 0.65706,0.239846 7.0559,2.517946 14.21965,5.062443 7.16375,2.544497 12.78248,5.018762 12.48607,5.498362 -0.79019,1.27856 -1.82799,1.08089 -16.03711,-3.054708 z"
     id="path8451"
     inkscape:connector-curvature="0" /><path
     style="fill:#0066ff;fill-opacity:1;stroke:none;stroke-width:8.54406834;stroke-linecap:round;stroke-linejoin:round;stroke-miterlimit:4;stroke-dasharray:none;stroke-dashoffset:0;stroke-opacity:1;paint-order:normal"
     d="m 90.805452,340.90478 c -6.94641,-2.55157 -19.446496,-12.26741 -15.782849,-12.26741 0.76054,0 1.920465,-0.7353 2.577613,-1.63401 1.043714,-1.42736 2.46097,-1.08484 11.206838,2.70845 15.363786,6.66364 14.475626,5.93798 11.824576,9.66103 -2.473908,3.47429 -3.923185,3.70024 -9.826178,1.53194 z"
     id="path8455"
     inkscape:connector-curvature="0" /><path
     style="fill:#ff0000;fill-opacity:1;stroke:none;stroke-width:8.54406834;stroke-linecap:round;stroke-linejoin:round;stroke-miterlimit:4;stroke-dasharray:none;stroke-dashoffset:0;stroke-opacity:1;paint-order:normal"
     d=""
     id="path8457"
     inkscape:connector-curvature="0" /><path
     style="fill:#ff0000;fill-opacity:1;stroke:none;stroke-width:8.54406834;stroke-linecap:round;stroke-linejoin:round;stroke-miterlimit:4;stroke-dasharray:none;stroke-dashoffset:0;stroke-opacity:1;paint-order:normal"
     d="m 138.05137,208.1246 c 0,-0.57187 2.52317,-1.34168 5.60704,-1.7107 3.08388,-0.36902 7.88992,-0.93983 10.68009,-1.26845 3.03748,-0.35776 5.07304,-0.17335 5.07304,0.45957 0,0.58138 -3.96498,1.3818 -8.81107,1.7787 -4.84609,0.3969 -9.65213,0.95991 -10.68009,1.25114 -1.02795,0.29122 -1.86901,0.0616 -1.86901,-0.51026 z"
     id="path8461"
     inkscape:connector-curvature="0" /><path
     style="fill:#0066ff;fill-opacity:1;stroke:none;stroke-width:8.54406834;stroke-linecap:round;stroke-linejoin:round;stroke-miterlimit:4;stroke-dasharray:none;stroke-dashoffset:0;stroke-opacity:1;paint-order:normal"
     d="m 145.40448,230.9176 c -5.26564,-2.74291 -6.2851,-4.91881 -6.2851,-13.41464 0,-4.72891 0.14966,-4.80188 11.91712,-5.80982 9.31664,-0.79802 9.14193,-0.95545 9.58315,8.63494 0.23579,5.12519 0.004,5.65564 -4.07954,9.34508 -2.38123,2.1513 -4.75187,3.88908 -5.26808,3.86173 -0.51621,-0.0273 -3.15661,-1.20513 -5.86755,-2.61729 z"
     id="path8463"
     inkscape:connector-curvature="0" /></svg>