<svg version="1.1" id="Layer_1" xmlns="http://www.w3.org/2000/svg" xmlns:xlink="http://www.w3.org/1999/xlink" x="0px" y="0px"
	 viewBox="0 0 2505.6 760.6" style="enable-background:new 0 0 2505.6 760.6;" xml:space="preserve">
<style type="text/css">
	.st0{fill:none;stroke:#E84434;stroke-width:3.4;stroke-linecap:round;stroke-linejoin:round;}
</style>
<title>SVG</title>
<path class="st0" d="M2043.9,206.8"/>
<path class="st0" d="M2065.1,228.4"/>
<path class="st0" d="M2192.7,228.4"/>
<path class="st0" d="M0.6,393.6c0,0,357.2-146.6,527.8-148.3s252.3-23.7,283.5-32.2s50.5-15.2,72.1-11.9s9.6,13.5,43.3,6.8
	s48-37.3,81.7-22s120.1,91.4,163.4,93.1s69.7-20.3,69.7-20.3s33.6-8.5,57.7,6.8s29.4,20.9,40.8,23.7c55.1,13.8,202.8,14.5,226.8-4.1
	c0,0,20.7-10.5,129.5-52c58.1-14.3,138.2-38.6,197.8-77.7c0,0,99.2-48.9,170.6,5.1c0,0,27.7,23.7,65,29.7
	c37.3,6,61.9,29.1,61.9,29.1s27.5,34.4,59.1,26.4c0,0,129.4-35.2,254.3,114.8"/>
</svg>