<?xml version="1.0" encoding="UTF-8" standalone="no"?>
<svg
   xmlns:dc="http://purl.org/dc/elements/1.1/"
   xmlns:cc="http://creativecommons.org/ns#"
   xmlns:rdf="http://www.w3.org/1999/02/22-rdf-syntax-ns#"
   xmlns:svg="http://www.w3.org/2000/svg"
   xmlns="http://www.w3.org/2000/svg"
   xmlns:sodipodi="http://sodipodi.sourceforge.net/DTD/sodipodi-0.dtd"
   xmlns:inkscape="http://www.inkscape.org/namespaces/inkscape"
   id="Layer_1"
   data-name="Layer 1"
   viewBox="0 0 360.84143 175.22968"
   version="1.1"
   sodipodi:docname="page13.svg"
   inkscape:version="0.92.1 r15371"
   width="360.84143"
   height="175.22968">
  <metadata
     id="metadata13">
    <rdf:RDF>
      <cc:Work
         rdf:about="">
        <dc:format>image/svg+xml</dc:format>
        <dc:type
           rdf:resource="http://purl.org/dc/dcmitype/StillImage" />
        <dc:title>SVG</dc:title>
      </cc:Work>
    </rdf:RDF>
  </metadata>
  <sodipodi:namedview
     pagecolor="#ffffff"
     bordercolor="#666666"
     borderopacity="1"
     objecttolerance="10"
     gridtolerance="10"
     guidetolerance="10"
     inkscape:pageopacity="0"
     inkscape:pageshadow="2"
     inkscape:window-width="1366"
     inkscape:window-height="705"
     id="namedview11"
     showgrid="false"
     inkscape:zoom="1.0821521"
     inkscape:cx="214.96752"
     inkscape:cy="92.397605"
     inkscape:window-x="-8"
     inkscape:window-y="-8"
     inkscape:window-maximized="1"
     inkscape:current-layer="g4503"
     fit-margin-top="0"
     fit-margin-left="0"
     fit-margin-right="0"
     fit-margin-bottom="0" />
  <defs
     id="defs4">
    <style
       id="style2">.cls-1{fill:none;stroke:#000;stroke-linecap:round;stroke-linejoin:round;stroke-width:3.4px;}</style>
  </defs>
  <title
     id="title6">SVG</title>
  <g
     id="g4503"
     transform="translate(83.747517,37.947066)">
    <path
       inkscape:connector-curvature="0"
       style="fill:#ffffff;fill-opacity:1;stroke:#000000;stroke-width:2.92822671;stroke-miterlimit:4;stroke-dasharray:none;stroke-opacity:1"
       id="path8"
       d="M 62.558835,-36.406996 A 85.621641,62.41 0 0 0 -26.63751,18.47191 44.39539,32.36 0 0 0 -82.264654,49.514879 h -0.01875 v 0.03906 a 44.39539,32.36 0 0 0 0.008,0.109375 44.39539,32.36 0 0 0 -0.008,0.109375 v 0.03906 h 0.01875 a 44.39539,32.36 0 0 0 55.627144,31.042976 85.621641,62.41 0 0 0 159.14293,23.769525 65.015375,47.39 0 0 0 110.4665,-31.410155 h 0.0697 a 32.514547,23.7 0 0 0 32.50007,-23.402341 h 0.0137 a 32.514547,23.7 0 0 0 -0.008,-0.148438 32.514547,23.7 0 0 0 0.008,-0.148437 h -0.0137 A 32.514547,23.7 0 0 0 243.04158,26.112535 h -0.0697 A 65.015375,47.39 0 0 0 132.50542,-5.2976211 85.621641,62.41 0 0 0 62.558835,-36.406996 Z" />
    <text
       transform="scale(0.95770048,1.0441678)"
       id="text4495"
       y="43.126461"
       x="110.00879"
       style="font-style:normal;font-weight:normal;font-size:25.51582909px;line-height:1.25;font-family:sans-serif;text-align:center;letter-spacing:0px;word-spacing:0px;text-anchor:middle;fill:#0043ff;fill-opacity:1;stroke:none;stroke-width:0.47842184;"
       xml:space="preserve"><tspan
         style="font-style:normal;font-variant:normal;font-weight:bold;font-stretch:normal;font-family:sans-serif;-inkscape-font-specification:'sans-serif Bold';fill:#0043ff;fill-opacity:1;stroke-width:0.47842184;"
         y="43.126461"
         x="114.36942"
         sodipodi:role="line"
         id="tspan4507">I did good but why </tspan><tspan
         style="font-style:normal;font-variant:normal;font-weight:bold;font-stretch:normal;font-family:sans-serif;-inkscape-font-specification:'sans-serif Bold';fill:#0043ff;fill-opacity:1;stroke-width:0.47842184;"
         y="75.021248"
         x="110.00879"
         sodipodi:role="line"
         id="tspan4511">I got rejected?</tspan></text>
  </g>
</svg>
